<svg width="375" height="667" viewBox="0 0 375 667" fill="none" xmlns="http://www.w3.org/2000/svg">
<rect width="375" height="667" fill="white"/>
<path d="M253.236 305.324H246.965C285.974 289.694 313.614 251.429 313.614 206.798V71H121.764C63.441 71 16 118.576 16 177.065V489.935C16 548.424 63.441 596 121.764 596H359V411.389C359 352.9 311.559 305.324 253.236 305.324ZM253.236 312.574C307.571 312.574 351.786 356.899 351.786 411.404V586.323L351.588 586.262C302.031 570.19 259.75 528.551 228.457 494.071C213.496 477.587 202.05 457.149 190.985 437.367C177.637 413.526 163.848 388.891 143.62 370.407C112.252 341.758 78.098 327.105 30.9766 312.879H207.849C210.421 312.879 212.948 312.757 215.475 312.574H253.236ZM215.231 305.324H28.7849C37.9169 280.826 45.253 264.25 65.4653 244.85C80.107 230.793 100.441 220.444 129.435 212.309C138.096 209.882 147.015 207.73 155.705 205.654C170.804 202.021 186.435 198.266 201.366 192.832C228.488 182.957 252.414 167.678 270.571 148.675C288.166 130.268 300.661 107.77 306.384 84.5539V206.814C306.384 258.816 266.112 301.538 215.216 305.339L215.231 305.324ZM121.764 78.2501H300.616C295.791 101.908 283.417 125.094 265.488 143.852C248.076 162.077 225.063 176.745 198.946 186.254C184.395 191.566 168.962 195.259 154.001 198.862C145.295 200.953 136.3 203.12 127.518 205.577C108.538 210.904 80.9594 220.246 60.5797 239.813C40.063 259.518 32.2398 276.216 23.1991 300.18V177.065C23.2295 122.575 67.4287 78.2501 121.764 78.2501ZM23.2295 489.935V317.855C72.36 332.355 107.244 346.657 138.872 375.535C158.262 393.256 171.778 417.403 184.867 440.756C196.13 460.873 207.788 481.677 223.267 498.742C252.794 531.268 291.986 570.037 338.255 588.765H121.764C67.4287 588.765 23.2143 544.44 23.2143 489.935H23.2295Z" fill="#E1E1E1" fill-opacity="0.2"/>
</svg>
