<svg width="375" height="667" viewBox="0 0 375 667" fill="none" xmlns="http://www.w3.org/2000/svg">
<rect width="375" height="667" fill="white"/>
<path d="M253.236 305.324H246.965C285.974 289.694 313.614 251.429 313.614 206.798V71H121.764C63.441 71 16 118.576 16 177.065V489.935C16 548.424 63.441 596 121.764 596H359V411.389C359 352.9 311.559 305.324 253.236 305.324ZM253.236 312.574C307.571 312.574 351.786 356.899 351.786 411.404V586.323L351.588 586.262C302.031 570.19 259.75 528.551 228.457 494.071C213.496 477.587 202.05 457.149 190.985 437.367C177.637 413.526 163.848 388.891 143.62 370.407C112.252 341.758 78.098 327.105 30.9766 312.879H207.849C210.421 312.879 212.948 312.757 215.475 312.574H253.236ZM215.231 305.324H28.7849C37.9169 280.826 45.253 264.25 65.4653 244.85C80.107 230.793 100.441 220.444 129.435 212.309C138.096 209.882 147.015 207.73 155.705 205.654C170.804 202.021 186.435 198.266 201.366 192.832C228.488 182.957 252.414 167.678 270.571 148.675C288.166 130.268 300.661 107.77 306.384 84.5539V206.814C306.384 258.816 266.112 301.538 215.216 305.339L215.231 305.324ZM121.764 78.2501H300.616C295.791 101.908 283.417 125.094 265.488 143.852C248.076 162.077 225.063 176.745 198.946 186.254C184.395 191.566 168.962 195.259 154.001 198.862C145.295 200.953 136.3 203.12 127.518 205.577C108.538 210.904 80.9594 220.246 60.5797 239.813C40.063 259.518 32.2398 276.216 23.1991 300.18V177.065C23.2295 122.575 67.4287 78.2501 121.764 78.2501ZM23.2295 489.935V317.855C72.36 332.355 107.244 346.657 138.872 375.535C158.262 393.256 171.778 417.403 184.867 440.756C196.13 460.873 207.788 481.677 223.267 498.742C252.794 531.268 291.986 570.037 338.255 588.765H121.764C67.4287 588.765 23.2143 544.44 23.2143 489.935H23.2295Z" fill="#E1E1E1" fill-opacity="0.2"/>
<path d="M40.2844 363.792V368.578C40.2844 371.178 39.4966 373.265 37.921 374.841C36.5029 376.298 34.5728 377.027 32.1305 377.027H28.349H19.8997C19.624 377.027 19.3876 376.948 19.1907 376.791C19.0331 376.594 18.9543 376.377 18.9543 376.141V344.175C18.9543 341.615 19.7421 339.507 21.3178 337.853C22.7752 336.396 24.7054 335.667 27.1082 335.667H32.1305C34.5334 335.667 36.4635 336.396 37.921 337.853C39.4966 339.468 40.2844 341.635 40.2844 344.353V346.421C40.2844 348.981 39.4966 351.069 37.921 352.684C37.4877 353.196 36.9362 353.609 36.2666 353.924C36.9756 354.358 37.5271 354.791 37.921 355.224C39.4966 356.8 40.2844 358.927 40.2844 361.606V363.792ZM22.6767 339.153C21.4162 340.453 20.786 342.147 20.786 344.234V353.038H28.4081H32.485C34.1788 352.999 35.5575 352.447 36.6211 351.384C37.8422 350.123 38.4527 348.429 38.4527 346.302V345.711V344.175C38.4527 342.088 37.8422 340.413 36.6211 339.153C35.5181 338.05 34.0213 337.499 32.1305 337.499H27.1082C25.2568 337.499 23.7797 338.05 22.6767 339.153ZM36.6211 373.6C37.8422 372.34 38.4527 370.646 38.4527 368.519V363.792V361.547C38.4527 359.459 37.8422 357.785 36.6211 356.524C35.5969 355.421 34.2182 354.87 32.485 354.87H20.786V375.195H31.5397H32.1305C34.0607 375.195 35.5575 374.664 36.6211 373.6ZM65.7085 375.255C66.3388 375.255 66.6539 375.57 66.6539 376.2C66.6539 376.436 66.5554 376.653 66.3585 376.85C66.2009 377.007 65.9843 377.086 65.7085 377.086H57.8501H46.2692C45.9935 377.086 45.7571 377.007 45.5602 376.85C45.4026 376.653 45.3238 376.436 45.3238 376.2V344.234C45.3238 341.674 46.1116 339.567 47.6873 337.912C49.1447 336.455 51.0749 335.726 53.4777 335.726H54.3049H65.2949C65.9252 335.726 66.2403 336.041 66.2403 336.671C66.2403 336.908 66.1418 337.124 65.9449 337.321C65.7873 337.479 65.5707 337.558 65.2949 337.558H56.8456H53.4777C51.6263 337.558 50.1492 338.109 49.0462 339.212C47.7857 340.473 47.1555 342.166 47.1555 344.293V353.097H57.8501C58.0864 353.097 58.2834 353.196 58.4409 353.393C58.6379 353.55 58.7364 353.747 58.7364 353.984C58.7364 354.259 58.6379 354.496 58.4409 354.693C58.2834 354.85 58.0864 354.929 57.8501 354.929H47.1555V375.255H65.7085ZM90.66 337.912C92.2356 339.527 93.0234 341.674 93.0234 344.353V376.2C93.0234 376.436 92.925 376.653 92.728 376.85C92.5704 377.007 92.3735 377.086 92.1371 377.086C91.8614 377.086 91.6251 377.007 91.4281 376.85C91.2705 376.653 91.1918 376.436 91.1918 376.2V359.656H73.525V376.2C73.525 376.436 73.4265 376.653 73.2296 376.85C73.072 377.007 72.8554 377.086 72.5796 377.086C72.3433 377.086 72.1266 377.007 71.9297 376.85C71.7721 376.653 71.6933 376.436 71.6933 376.2V344.234C71.6933 341.674 72.4811 339.567 74.0568 337.912C75.5142 336.455 77.4444 335.726 79.8472 335.726H84.8695C87.2724 335.726 89.2025 336.455 90.66 337.912ZM73.525 357.824H91.1918V344.234C91.1918 342.147 90.5615 340.473 89.301 339.212C88.2768 338.109 86.7997 337.558 84.8695 337.558H79.8472C77.9565 337.558 76.4596 338.109 75.3567 339.212C74.1356 340.473 73.525 342.166 73.525 344.293V357.824ZM120.258 336.258V368.637C120.258 371.158 119.471 373.246 117.895 374.9C116.438 376.358 114.507 377.086 112.105 377.086H107.082C104.679 377.086 102.749 376.358 101.292 374.9C99.7162 373.324 98.9284 371.276 98.9284 368.755V368.46V336.258C98.9284 335.627 99.2435 335.312 99.8737 335.312C100.11 335.312 100.307 335.411 100.465 335.608C100.662 335.765 100.76 335.982 100.76 336.258V368.578C100.76 370.666 101.371 372.34 102.592 373.6C103.655 374.664 105.152 375.195 107.082 375.195H112.105C113.995 375.195 115.472 374.664 116.536 373.6C117.757 372.34 118.368 370.725 118.368 368.755V368.519V336.258C118.368 335.627 118.683 335.312 119.313 335.312C119.943 335.312 120.258 335.627 120.258 336.258ZM147.434 335.667C147.71 335.667 147.927 335.765 148.084 335.962C148.281 336.12 148.38 336.317 148.38 336.553C148.38 337.183 148.065 337.499 147.434 337.499H137.094V376.082C137.094 376.358 136.996 376.594 136.799 376.791C136.641 376.948 136.444 377.027 136.208 377.027C135.578 377.027 135.263 376.712 135.263 376.082V337.499H124.923C124.686 337.499 124.47 337.42 124.273 337.262C124.115 337.065 124.036 336.829 124.036 336.553C124.036 336.317 124.115 336.12 124.273 335.962C124.47 335.765 124.686 335.667 124.923 335.667H147.434ZM170.623 335.726C170.977 335.883 171.155 336.159 171.155 336.553C171.155 336.671 171.115 336.809 171.037 336.967L161.11 358.533V376.141C161.11 376.771 160.795 377.086 160.165 377.086C159.534 377.086 159.219 376.771 159.219 376.141V358.533L149.234 336.967C149.194 336.888 149.175 336.77 149.175 336.612C149.175 336.179 149.352 335.883 149.706 335.726C149.785 335.687 149.923 335.667 150.12 335.667C150.514 335.667 150.79 335.844 150.947 336.199L160.165 356.17L169.382 336.199C169.54 335.844 169.815 335.667 170.209 335.667C170.406 335.667 170.544 335.687 170.623 335.726ZM195.561 368.401C195.561 371.04 194.774 373.167 193.198 374.782C191.78 376.239 189.85 376.968 187.408 376.968H182.267C179.825 376.968 177.895 376.239 176.477 374.782C174.901 373.167 174.113 371.04 174.113 368.401V344.057C174.113 341.497 174.901 339.409 176.477 337.794C177.383 336.888 178.466 336.258 179.726 335.903C180.593 335.706 181.44 335.608 182.267 335.608H186.699C189.101 335.608 191.032 336.336 192.489 337.794C194.065 339.409 194.852 341.536 194.852 344.175C194.852 344.805 194.537 345.121 193.907 345.121C193.316 345.042 193.021 344.707 193.021 344.116C193.021 342.028 192.391 340.354 191.13 339.094C190.106 337.991 188.629 337.439 186.699 337.439H182.267C181.558 337.439 180.849 337.538 180.14 337.735C179.234 337.971 178.466 338.424 177.836 339.094C176.575 340.354 175.945 342.048 175.945 344.175V368.46C175.945 370.547 176.575 372.221 177.836 373.482C178.899 374.585 180.376 375.136 182.267 375.136H187.408C189.338 375.136 190.835 374.585 191.898 373.482C193.119 372.261 193.73 370.626 193.73 368.578V362.492H186.167C185.891 362.492 185.655 362.413 185.458 362.256C185.3 362.059 185.221 361.842 185.221 361.606C185.221 360.975 185.537 360.66 186.167 360.66H194.616C194.852 360.66 195.089 360.739 195.325 360.897C195.483 361.054 195.561 361.291 195.561 361.606V368.401ZM219.669 335.726C220.024 335.883 220.201 336.159 220.201 336.553C220.201 336.671 220.161 336.809 220.083 336.967L210.156 358.533V376.141C210.156 376.771 209.841 377.086 209.211 377.086C208.581 377.086 208.265 376.771 208.265 376.141V358.533L198.28 336.967C198.241 336.888 198.221 336.77 198.221 336.612C198.221 336.179 198.398 335.883 198.753 335.726C198.831 335.687 198.969 335.667 199.166 335.667C199.56 335.667 199.836 335.844 199.993 336.199L209.211 356.17L218.428 336.199C218.586 335.844 218.862 335.667 219.255 335.667C219.452 335.667 219.59 335.687 219.669 335.726ZM248.803 335.726C249.394 335.726 249.689 336.021 249.689 336.612V376.141C249.689 376.417 249.591 376.653 249.394 376.85C249.236 377.007 249.039 377.086 248.803 377.086C248.172 377.086 247.857 376.771 247.857 376.141V343.762L248.212 340.807L247.503 343.821L237.34 376.436C237.34 376.87 237.025 377.086 236.395 377.086C236.198 377.086 236.02 377.027 235.863 376.909C235.745 376.791 235.666 376.692 235.627 376.614L235.567 376.436L225.405 343.821L224.696 340.807L225.05 343.762V376.141C225.05 376.771 224.735 377.086 224.105 377.086C223.553 377.086 223.238 376.771 223.159 376.141V336.612C223.159 336.021 223.514 335.726 224.223 335.726C224.577 335.726 224.833 335.943 224.991 336.376L228.773 348.429L236.454 373.009L245.021 345.475L247.857 336.376C248.015 335.943 248.33 335.726 248.803 335.726ZM277.095 368.519C277.095 371.158 276.287 373.285 274.672 374.9C273.254 376.358 271.324 377.086 268.882 377.086H263.741C261.299 377.086 259.369 376.358 257.951 374.9C256.375 373.285 255.587 371.158 255.587 368.519V368.223V344.234C255.587 341.674 256.375 339.567 257.951 337.912C258.896 337.006 259.98 336.396 261.201 336.08C262.028 335.844 262.875 335.726 263.741 335.726H268.173C270.576 335.726 272.506 336.455 273.963 337.912C275.539 339.488 276.327 341.536 276.327 344.057V344.353C276.327 344.589 276.228 344.805 276.031 345.002C275.874 345.16 275.657 345.239 275.381 345.239C274.79 345.239 274.495 344.904 274.495 344.234C274.495 342.147 273.885 340.473 272.663 339.212C271.6 338.148 270.182 337.617 268.409 337.617H263.741C262.914 337.617 262.205 337.695 261.614 337.853C260.59 338.208 259.822 338.661 259.31 339.212C258.049 340.473 257.419 342.166 257.419 344.293V368.519C257.419 370.646 258.049 372.359 259.31 373.659C260.373 374.723 261.851 375.255 263.741 375.255H268.882C270.812 375.255 272.309 374.703 273.372 373.6C274.594 372.34 275.204 370.666 275.204 368.578C275.204 367.948 275.559 367.632 276.268 367.632C276.74 367.632 277.016 367.928 277.095 368.519ZM302.621 377.086H290.803C288.4 377.086 286.47 376.358 285.013 374.9C283.437 373.285 282.649 371.197 282.649 368.637V336.671C282.649 336.396 282.728 336.179 282.886 336.021C283.083 335.824 283.299 335.726 283.536 335.726C284.166 335.726 284.481 336.041 284.481 336.671V368.519C284.481 370.646 285.092 372.34 286.313 373.6C287.416 374.703 288.913 375.255 290.803 375.255H302.621C302.896 375.255 303.113 375.353 303.27 375.55C303.467 375.708 303.566 375.905 303.566 376.141C303.566 376.771 303.251 377.086 302.621 377.086ZM328.329 336.258V368.637C328.329 371.158 327.542 373.246 325.966 374.9C324.509 376.358 322.578 377.086 320.176 377.086H315.153C312.75 377.086 310.82 376.358 309.363 374.9C307.787 373.324 306.999 371.276 306.999 368.755V368.46V336.258C306.999 335.627 307.315 335.312 307.945 335.312C308.181 335.312 308.378 335.411 308.536 335.608C308.733 335.765 308.831 335.982 308.831 336.258V368.578C308.831 370.666 309.442 372.34 310.663 373.6C311.726 374.664 313.223 375.195 315.153 375.195H320.176C322.066 375.195 323.544 374.664 324.607 373.6C325.828 372.34 326.439 370.725 326.439 368.755V368.519V336.258C326.439 335.627 326.754 335.312 327.384 335.312C328.014 335.312 328.329 335.627 328.329 336.258ZM355.565 363.792V368.578C355.565 371.178 354.777 373.265 353.201 374.841C351.783 376.298 349.853 377.027 347.411 377.027H343.629H335.18C334.904 377.027 334.668 376.948 334.471 376.791C334.313 376.594 334.234 376.377 334.234 376.141V344.175C334.234 341.615 335.022 339.507 336.598 337.853C338.055 336.396 339.985 335.667 342.388 335.667H347.411C349.813 335.667 351.744 336.396 353.201 337.853C354.777 339.468 355.565 341.635 355.565 344.353V346.421C355.565 348.981 354.777 351.069 353.201 352.684C352.768 353.196 352.216 353.609 351.547 353.924C352.256 354.358 352.807 354.791 353.201 355.224C354.777 356.8 355.565 358.927 355.565 361.606V363.792ZM337.957 339.153C336.696 340.453 336.066 342.147 336.066 344.234V353.038H343.688H347.765C349.459 352.999 350.838 352.447 351.901 351.384C353.122 350.123 353.733 348.429 353.733 346.302V345.711V344.175C353.733 342.088 353.122 340.413 351.901 339.153C350.798 338.05 349.301 337.499 347.411 337.499H342.388C340.537 337.499 339.06 338.05 337.957 339.153ZM351.901 373.6C353.122 372.34 353.733 370.646 353.733 368.519V363.792V361.547C353.733 359.459 353.122 357.785 351.901 356.524C350.877 355.421 349.498 354.87 347.765 354.87H336.066V375.195H346.82H347.411C349.341 375.195 350.838 374.664 351.901 373.6Z" fill="#1F2C4A"/>
<path d="M37.921 374.841L37.4857 374.406L37.4798 374.412L37.921 374.841ZM19.1907 376.791L18.71 377.175L18.7528 377.229L18.8062 377.271L19.1907 376.791ZM21.3178 337.853L20.8825 337.418L20.8772 337.423L20.8721 337.429L21.3178 337.853ZM37.921 337.853L38.3616 337.423L38.3562 337.418L37.921 337.853ZM37.921 352.684L37.4804 352.254L37.4652 352.269L37.4511 352.286L37.921 352.684ZM36.2666 353.924L36.0045 353.368L34.9709 353.854L35.9456 354.45L36.2666 353.924ZM37.921 355.224L37.4655 355.638L37.4754 355.649L37.4858 355.66L37.921 355.224ZM22.6767 339.153L22.2415 338.718L22.2349 338.724L22.6767 339.153ZM20.786 353.038H20.1705V353.654H20.786V353.038ZM32.485 353.038V353.654H32.4922L32.4994 353.653L32.485 353.038ZM36.6211 351.384L37.0563 351.819L37.0631 351.812L36.6211 351.384ZM36.6211 339.153L37.0632 338.725L37.0563 338.718L36.6211 339.153ZM36.6211 373.6L37.0563 374.035L37.0631 374.028L36.6211 373.6ZM36.6211 356.524L36.17 356.943L36.179 356.953L36.6211 356.524ZM20.786 354.87V354.254H20.1705V354.87H20.786ZM20.786 375.195H20.1705V375.811H20.786V375.195ZM39.6689 363.792V368.578H40.8999V363.792H39.6689ZM39.6689 368.578C39.6689 371.044 38.9267 372.965 37.4858 374.406L38.3562 375.276C40.0665 373.566 40.8999 371.311 40.8999 368.578H39.6689ZM37.4798 374.412C36.2005 375.727 34.4425 376.412 32.1305 376.412V377.643C34.703 377.643 36.8053 376.87 38.3621 375.27L37.4798 374.412ZM32.1305 376.412H28.349V377.643H32.1305V376.412ZM28.349 376.412H19.8997V377.643H28.349V376.412ZM19.8997 376.412C19.7498 376.412 19.6526 376.372 19.5751 376.31L18.8062 377.271C19.1226 377.525 19.4981 377.643 19.8997 377.643V376.412ZM19.6713 376.406C19.5947 376.311 19.5698 376.228 19.5698 376.141H18.3388C18.3388 376.527 18.4715 376.877 18.71 377.175L19.6713 376.406ZM19.5698 376.141V344.175H18.3388V376.141H19.5698ZM19.5698 344.175C19.5698 341.752 20.3103 339.803 21.7634 338.277L20.8721 337.429C19.174 339.212 18.3388 341.477 18.3388 344.175H19.5698ZM21.753 338.288C23.0759 336.965 24.8394 336.282 27.1082 336.282V335.051C24.5714 335.051 22.4746 335.826 20.8825 337.418L21.753 338.288ZM27.1082 336.282H32.1305V335.051H27.1082V336.282ZM32.1305 336.282C34.3994 336.282 36.1629 336.965 37.4858 338.288L38.3562 337.418C36.7642 335.826 34.6674 335.051 32.1305 335.051V336.282ZM37.4804 338.283C38.9216 339.76 39.6689 341.76 39.6689 344.353H40.8999C40.8999 341.509 40.0716 339.176 38.3615 337.423L37.4804 338.283ZM39.6689 344.353V346.421H40.8999V344.353H39.6689ZM39.6689 346.421C39.6689 348.844 38.9285 350.77 37.4804 352.254L38.3615 353.113C40.0647 351.368 40.8999 349.118 40.8999 346.421H39.6689ZM37.4511 352.286C37.0805 352.724 36.6026 353.086 36.0045 353.368L36.5286 354.481C37.2698 354.133 37.8948 353.667 38.3908 353.081L37.4511 352.286ZM35.9456 354.45C36.6238 354.864 37.1236 355.262 37.4655 355.638L38.3764 354.81C37.9305 354.32 37.3274 353.851 36.5875 353.399L35.9456 354.45ZM37.4858 355.66C38.9232 357.097 39.6689 359.055 39.6689 361.606H40.8999C40.8999 358.799 40.07 356.503 38.3562 354.789L37.4858 355.66ZM39.6689 361.606V363.792H40.8999V361.606H39.6689ZM22.2349 338.724C20.8459 340.157 20.1705 342.013 20.1705 344.234H21.4015C21.4015 342.28 21.9866 340.749 23.1186 339.581L22.2349 338.724ZM20.1705 344.234V353.038H21.4015V344.234H20.1705ZM20.786 353.654H28.4081V352.423H20.786V353.654ZM28.4081 353.654H32.485V352.423H28.4081V353.654ZM32.4994 353.653C34.3297 353.611 35.8664 353.009 37.0563 351.819L36.1859 350.949C35.2487 351.886 34.028 352.387 32.4707 352.423L32.4994 353.653ZM37.0631 351.812C38.4182 350.413 39.0682 348.553 39.0682 346.302H37.8373C37.8373 348.306 37.2661 349.833 36.179 350.956L37.0631 351.812ZM39.0682 346.302V345.711H37.8373V346.302H39.0682ZM39.0682 345.711V344.175H37.8373V345.711H39.0682ZM39.0682 344.175C39.0682 341.96 38.4161 340.121 37.0631 338.725L36.179 339.581C37.2682 340.706 37.8373 342.215 37.8373 344.175H39.0682ZM37.0563 338.718C35.8142 337.476 34.1476 336.883 32.1305 336.883V338.114C33.895 338.114 35.2221 338.624 36.1859 339.588L37.0563 338.718ZM32.1305 336.883H27.1082V338.114H32.1305V336.883ZM27.1082 336.883C25.1264 336.883 23.4812 337.478 22.2415 338.718L23.1119 339.588C24.0782 338.622 25.3873 338.114 27.1082 338.114V336.883ZM37.0631 374.028C38.4182 372.63 39.0682 370.77 39.0682 368.519H37.8373C37.8373 370.522 37.2661 372.05 36.179 373.172L37.0631 374.028ZM39.0682 368.519V363.792H37.8373V368.519H39.0682ZM39.0682 363.792V361.547H37.8373V363.792H39.0682ZM39.0682 361.547C39.0682 359.331 38.4161 357.493 37.0631 356.096L36.179 356.953C37.2682 358.077 37.8373 359.586 37.8373 361.547H39.0682ZM37.0721 356.105C35.9134 354.858 34.3609 354.254 32.485 354.254V355.485C34.0755 355.485 35.2804 355.985 36.1701 356.943L37.0721 356.105ZM32.485 354.254H20.786V355.485H32.485V354.254ZM20.1705 354.87V375.195H21.4015V354.87H20.1705ZM20.786 375.811H31.5397V374.58H20.786V375.811ZM31.5397 375.811H32.1305V374.58H31.5397V375.811ZM32.1305 375.811C34.1755 375.811 35.8471 375.245 37.0563 374.035L36.1859 373.165C35.268 374.083 33.9458 374.58 32.1305 374.58V375.811ZM66.3585 376.85L66.7937 377.285V377.285L66.3585 376.85ZM45.5602 376.85L45.0796 377.234L45.1223 377.288L45.1757 377.331L45.5602 376.85ZM47.6873 337.912L47.2521 337.477L47.2467 337.482L47.2416 337.488L47.6873 337.912ZM47.1555 353.097H46.54V353.713H47.1555V353.097ZM58.4409 353.393L57.9603 353.777L58.0031 353.831L58.0565 353.873L58.4409 353.393ZM58.4409 354.693L58.8762 355.128V355.128L58.4409 354.693ZM47.1555 354.929V354.313H46.54V354.929H47.1555ZM47.1555 375.255H46.54V375.87H47.1555V375.255ZM65.7085 375.87C65.9288 375.87 65.9809 375.925 65.9824 375.926C65.9838 375.928 66.0384 375.98 66.0384 376.2H67.2694C67.2694 375.79 67.1665 375.369 66.8528 375.056C66.5391 374.742 66.1185 374.639 65.7085 374.639V375.87ZM66.0384 376.2C66.0384 376.244 66.027 376.311 65.9233 376.415L66.7937 377.285C67.0839 376.995 67.2694 376.628 67.2694 376.2H66.0384ZM65.9233 376.415C65.9073 376.431 65.8621 376.471 65.7085 376.471V377.702C66.1064 377.702 66.4946 377.584 66.7937 377.285L65.9233 376.415ZM65.7085 376.471H57.8501V377.702H65.7085V376.471ZM57.8501 376.471H46.2692V377.702H57.8501V376.471ZM46.2692 376.471C46.1193 376.471 46.0221 376.431 45.9447 376.369L45.1757 377.331C45.4921 377.584 45.8676 377.702 46.2692 377.702V376.471ZM46.0408 376.465C45.9642 376.37 45.9393 376.287 45.9393 376.2H44.7083C44.7083 376.586 44.841 376.936 45.0796 377.234L46.0408 376.465ZM45.9393 376.2V344.234H44.7083V376.2H45.9393ZM45.9393 344.234C45.9393 341.811 46.6798 339.862 48.133 338.337L47.2416 337.488C45.5435 339.271 44.7083 341.537 44.7083 344.234H45.9393ZM48.1225 338.347C49.4454 337.024 51.2089 336.341 53.4777 336.341V335.11C50.9409 335.11 48.8441 335.885 47.2521 337.477L48.1225 338.347ZM53.4777 336.341H54.3049V335.11H53.4777V336.341ZM54.3049 336.341H65.2949V335.11H54.3049V336.341ZM65.2949 336.341C65.5152 336.341 65.5673 336.396 65.5688 336.397C65.5702 336.399 65.6248 336.451 65.6248 336.671H66.8558C66.8558 336.261 66.7529 335.841 66.4392 335.527C66.1255 335.213 65.7049 335.11 65.2949 335.11V336.341ZM65.6248 336.671C65.6248 336.716 65.6134 336.782 65.5097 336.886L66.3801 337.756C66.6703 337.466 66.8558 337.1 66.8558 336.671H65.6248ZM65.5097 336.886C65.4937 336.902 65.4485 336.942 65.2949 336.942V338.173C65.6928 338.173 66.081 338.056 66.3801 337.756L65.5097 336.886ZM65.2949 336.942H56.8456V338.173H65.2949V336.942ZM56.8456 336.942H53.4777V338.173H56.8456V336.942ZM53.4777 336.942C51.4959 336.942 49.8507 337.537 48.611 338.777L49.4815 339.647C50.4477 338.681 51.7568 338.173 53.4777 338.173V336.942ZM48.611 338.777C47.2132 340.175 46.54 342.037 46.54 344.293H47.771C47.771 342.296 48.3583 340.77 49.4815 339.647L48.611 338.777ZM46.54 344.293V353.097H47.771V344.293H46.54ZM47.1555 353.713H57.8501V352.482H47.1555V353.713ZM57.8501 353.713C57.8799 353.713 57.893 353.718 57.8998 353.722C57.9078 353.726 57.9291 353.738 57.9603 353.777L58.9216 353.008C58.6562 352.677 58.2874 352.482 57.8501 352.482V353.713ZM58.0565 353.873C58.0955 353.905 58.108 353.926 58.112 353.934C58.1154 353.941 58.1209 353.954 58.1209 353.984H59.3519C59.3519 353.546 59.1571 353.177 58.8254 352.912L58.0565 353.873ZM58.1209 353.984C58.1209 354.094 58.0886 354.175 58.0057 354.257L58.8762 355.128C59.1872 354.817 59.3519 354.424 59.3519 353.984H58.1209ZM58.0057 354.257C57.9711 354.292 57.9342 354.313 57.8501 354.313V355.544C58.2387 355.544 58.5956 355.408 58.8762 355.128L58.0057 354.257ZM57.8501 354.313H47.1555V355.544H57.8501V354.313ZM46.54 354.929V375.255H47.771V354.929H46.54ZM47.1555 375.87H65.7085V374.639H47.1555V375.87ZM90.66 337.912L91.1006 337.482L91.0952 337.477L90.66 337.912ZM92.728 376.85L93.1632 377.285V377.285L92.728 376.85ZM91.4281 376.85L90.9475 377.234L90.9902 377.288L91.0436 377.331L91.4281 376.85ZM91.1918 359.656H91.8072V359.04H91.1918V359.656ZM73.525 359.656V359.04H72.9095V359.656H73.525ZM73.2296 376.85L73.6648 377.285V377.285L73.2296 376.85ZM71.9297 376.85L71.4491 377.234L71.4918 377.288L71.5452 377.331L71.9297 376.85ZM74.0568 337.912L73.6216 337.477L73.6163 337.482L73.6111 337.488L74.0568 337.912ZM73.525 357.824H72.9095V358.44H73.525V357.824ZM91.1918 357.824V358.44H91.8072V357.824H91.1918ZM89.301 339.212L88.85 339.631L88.8577 339.639L88.8658 339.647L89.301 339.212ZM75.3567 339.212L74.9214 338.777L74.9146 338.784L75.3567 339.212ZM90.2194 338.342C91.6623 339.821 92.408 341.802 92.408 344.353H93.6389C93.6389 341.545 92.8089 339.233 91.1005 337.482L90.2194 338.342ZM92.408 344.353V376.2H93.6389V344.353H92.408ZM92.408 376.2C92.408 376.244 92.3965 376.311 92.2928 376.415L93.1632 377.285C93.4534 376.995 93.6389 376.628 93.6389 376.2H92.408ZM92.2928 376.415C92.2582 376.449 92.2212 376.471 92.1371 376.471V377.702C92.5257 377.702 92.8827 377.566 93.1632 377.285L92.2928 376.415ZM92.1371 376.471C91.9873 376.471 91.89 376.431 91.8126 376.369L91.0436 377.331C91.3601 377.584 91.7355 377.702 92.1371 377.702V376.471ZM91.9087 376.465C91.8322 376.37 91.8072 376.287 91.8072 376.2H90.5763C90.5763 376.586 90.7089 376.936 90.9475 377.234L91.9087 376.465ZM91.8072 376.2V359.656H90.5763V376.2H91.8072ZM91.1918 359.04H73.525V360.271H91.1918V359.04ZM72.9095 359.656V376.2H74.1405V359.656H72.9095ZM72.9095 376.2C72.9095 376.244 72.8981 376.311 72.7944 376.415L73.6648 377.285C73.955 376.995 74.1405 376.628 74.1405 376.2H72.9095ZM72.7944 376.415C72.7783 376.431 72.7332 376.471 72.5796 376.471V377.702C72.9775 377.702 73.3657 377.584 73.6648 377.285L72.7944 376.415ZM72.5796 376.471C72.4928 376.471 72.4099 376.446 72.3142 376.369L71.5452 377.331C71.8434 377.569 72.1938 377.702 72.5796 377.702V376.471ZM72.4103 376.465C72.3337 376.37 72.3088 376.287 72.3088 376.2H71.0779C71.0779 376.586 71.2105 376.936 71.4491 377.234L72.4103 376.465ZM72.3088 376.2V344.234H71.0779V376.2H72.3088ZM72.3088 344.234C72.3088 341.811 73.0493 339.862 74.5025 338.337L73.6111 337.488C71.913 339.271 71.0779 341.537 71.0779 344.234H72.3088ZM74.492 338.347C75.8149 337.024 77.5784 336.341 79.8472 336.341V335.11C77.3104 335.11 75.2136 335.885 73.6216 337.477L74.492 338.347ZM79.8472 336.341H84.8695V335.11H79.8472V336.341ZM84.8695 336.341C87.1384 336.341 88.9019 337.024 90.2248 338.347L91.0952 337.477C89.5032 335.885 87.4064 335.11 84.8695 335.11V336.341ZM73.525 358.44H91.1918V357.209H73.525V358.44ZM91.8072 357.824V344.234H90.5763V357.824H91.8072ZM91.8072 344.234C91.8072 342.014 91.1318 340.172 89.7362 338.777L88.8658 339.647C89.9912 340.773 90.5763 342.28 90.5763 344.234H91.8072ZM89.752 338.793C88.5806 337.532 86.9196 336.942 84.8695 336.942V338.173C86.6798 338.173 87.9731 338.686 88.85 339.631L89.752 338.793ZM84.8695 336.942H79.8472V338.173H84.8695V336.942ZM79.8472 336.942C77.8302 336.942 76.1636 337.535 74.9215 338.777L75.7919 339.647C76.7557 338.683 78.0827 338.173 79.8472 338.173V336.942ZM74.9146 338.784C73.5595 340.183 72.9095 342.042 72.9095 344.293H74.1405C74.1405 342.29 74.7116 340.762 75.7987 339.64L74.9146 338.784ZM72.9095 344.293V357.824H74.1405V344.293H72.9095ZM117.895 374.9L118.33 375.335L118.336 375.33L118.341 375.325L117.895 374.9ZM101.292 374.9L100.857 375.335L101.292 374.9ZM100.465 335.608L99.984 335.992L100.027 336.046L100.08 336.088L100.465 335.608ZM102.592 373.6L102.15 374.028L102.156 374.035L102.592 373.6ZM116.536 373.6L116.971 374.035L116.978 374.028L116.536 373.6ZM119.643 336.258V368.637H120.874V336.258H119.643ZM119.643 368.637C119.643 371.018 118.904 372.948 117.449 374.476L118.341 375.325C120.037 373.543 120.874 371.298 120.874 368.637H119.643ZM117.46 374.465C116.137 375.788 114.373 376.471 112.105 376.471V377.702C114.641 377.702 116.738 376.927 118.33 375.335L117.46 374.465ZM112.105 376.471H107.082V377.702H112.105V376.471ZM107.082 376.471C104.813 376.471 103.05 375.788 101.727 374.465L100.857 375.335C102.449 376.927 104.545 377.702 107.082 377.702V376.471ZM101.727 374.465C100.282 373.02 99.5438 371.136 99.5438 368.755H98.3129C98.3129 371.416 99.15 373.629 100.857 375.335L101.727 374.465ZM99.5438 368.755V368.46H98.3129V368.755H99.5438ZM99.5438 368.46V336.258H98.3129V368.46H99.5438ZM99.5438 336.258C99.5438 336.037 99.5985 335.985 99.5999 335.984C99.6013 335.982 99.6535 335.928 99.8737 335.928V334.697C99.4637 334.697 99.0432 334.8 98.7295 335.113C98.4158 335.427 98.3129 335.848 98.3129 336.258H99.5438ZM99.8737 335.928C99.9035 335.928 99.9166 335.933 99.9235 335.937C99.9315 335.941 99.9528 335.953 99.984 335.992L100.945 335.223C100.68 334.892 100.311 334.697 99.8737 334.697V335.928ZM100.08 336.088C100.116 336.117 100.145 336.149 100.145 336.258H101.376C101.376 335.815 101.207 335.413 100.849 335.127L100.08 336.088ZM100.145 336.258V368.578H101.376V336.258H100.145ZM100.145 368.578C100.145 370.793 100.797 372.632 102.15 374.028L103.034 373.172C101.945 372.048 101.376 370.538 101.376 368.578H100.145ZM102.156 374.035C103.366 375.245 105.037 375.811 107.082 375.811V374.58C105.267 374.58 103.945 374.083 103.027 373.165L102.156 374.035ZM107.082 375.811H112.105V374.58H107.082V375.811ZM112.105 375.811C114.114 375.811 115.764 375.242 116.971 374.035L116.101 373.165C115.181 374.085 113.876 374.58 112.105 374.58V375.811ZM116.978 374.028C118.324 372.639 118.983 370.863 118.983 368.755H117.752C117.752 370.586 117.19 372.041 116.094 373.172L116.978 374.028ZM118.983 368.755V368.519H117.752V368.755H118.983ZM118.983 368.519V336.258H117.752V368.519H118.983ZM118.983 336.258C118.983 336.037 119.038 335.985 119.039 335.984C119.041 335.982 119.093 335.928 119.313 335.928V334.697C118.903 334.697 118.483 334.8 118.169 335.113C117.855 335.427 117.752 335.848 117.752 336.258H118.983ZM119.313 335.928C119.533 335.928 119.585 335.982 119.587 335.984C119.588 335.985 119.643 336.037 119.643 336.258H120.874C120.874 335.848 120.771 335.427 120.457 335.113C120.144 334.8 119.723 334.697 119.313 334.697V335.928ZM148.084 335.962L147.604 336.347L147.646 336.4L147.7 336.443L148.084 335.962ZM137.094 337.499V336.883H136.479V337.499H137.094ZM136.799 376.791L136.364 376.356L136.799 376.791ZM135.263 337.499H135.878V336.883H135.263V337.499ZM124.273 337.262L123.792 337.647L123.835 337.7L123.888 337.743L124.273 337.262ZM124.273 335.962L123.837 335.527V335.527L124.273 335.962ZM147.434 336.282C147.543 336.282 147.575 336.311 147.604 336.347L148.565 335.578C148.279 335.22 147.877 335.051 147.434 335.051V336.282ZM147.7 336.443C147.739 336.474 147.751 336.495 147.755 336.503C147.759 336.51 147.764 336.523 147.764 336.553H148.995C148.995 336.116 148.801 335.747 148.469 335.482L147.7 336.443ZM147.764 336.553C147.764 336.773 147.71 336.826 147.708 336.827C147.707 336.828 147.655 336.883 147.434 336.883V338.114C147.844 338.114 148.265 338.011 148.579 337.697C148.892 337.384 148.995 336.963 148.995 336.553H147.764ZM147.434 336.883H137.094V338.114H147.434V336.883ZM136.479 337.499V376.082H137.71V337.499H136.479ZM136.479 376.082C136.479 376.192 136.447 376.273 136.364 376.356L137.234 377.226C137.545 376.915 137.71 376.523 137.71 376.082H136.479ZM136.364 376.356C136.329 376.39 136.292 376.412 136.208 376.412V377.643C136.597 377.643 136.954 377.507 137.234 377.226L136.364 376.356ZM136.208 376.412C135.988 376.412 135.936 376.357 135.934 376.356C135.933 376.354 135.878 376.302 135.878 376.082H134.647C134.647 376.492 134.75 376.912 135.064 377.226C135.377 377.54 135.798 377.643 136.208 377.643V376.412ZM135.878 376.082V337.499H134.647V376.082H135.878ZM135.263 336.883H124.923V338.114H135.263V336.883ZM124.923 336.883C124.836 336.883 124.753 336.858 124.657 336.782L123.888 337.743C124.186 337.981 124.537 338.114 124.923 338.114V336.883ZM124.753 336.878C124.691 336.8 124.652 336.703 124.652 336.553H123.421C123.421 336.955 123.539 337.33 123.792 337.647L124.753 336.878ZM124.652 336.553C124.652 336.469 124.673 336.432 124.708 336.397L123.837 335.527C123.557 335.808 123.421 336.165 123.421 336.553H124.652ZM124.708 336.397C124.812 336.294 124.878 336.282 124.923 336.282V335.051C124.494 335.051 124.128 335.237 123.837 335.527L124.708 336.397ZM124.923 336.282H147.434V335.051H124.923V336.282ZM170.623 335.726L170.348 336.276L170.36 336.283L170.373 336.288L170.623 335.726ZM171.037 336.967L170.486 336.691L170.482 336.7L170.477 336.709L171.037 336.967ZM161.11 358.533L160.551 358.276L160.495 358.398V358.533H161.11ZM159.219 358.533H159.835V358.398L159.778 358.275L159.219 358.533ZM149.234 336.967L149.792 336.708L149.788 336.7L149.784 336.691L149.234 336.967ZM149.706 335.726L149.956 336.288L149.969 336.283L149.982 336.276L149.706 335.726ZM150.947 336.199L150.385 336.449L150.388 336.457L150.947 336.199ZM160.165 356.17L159.606 356.428L160.165 357.638L160.724 356.428L160.165 356.17ZM169.382 336.199L169.941 336.457L169.945 336.449L169.382 336.199ZM170.373 336.288C170.461 336.327 170.492 336.364 170.504 336.384C170.517 336.404 170.539 336.45 170.539 336.553H171.77C171.77 336.262 171.704 335.974 171.54 335.718C171.375 335.462 171.139 335.282 170.873 335.163L170.373 336.288ZM170.539 336.553C170.539 336.544 170.541 336.551 170.533 336.576C170.526 336.601 170.512 336.639 170.486 336.691L171.587 337.242C171.689 337.037 171.77 336.802 171.77 336.553H170.539ZM170.477 336.709L160.551 358.276L161.669 358.791L171.596 337.224L170.477 336.709ZM160.495 358.533V376.141H161.726V358.533H160.495ZM160.495 376.141C160.495 376.361 160.44 376.413 160.439 376.415C160.437 376.416 160.385 376.471 160.165 376.471V377.702C160.575 377.702 160.995 377.599 161.309 377.285C161.623 376.971 161.726 376.551 161.726 376.141H160.495ZM160.165 376.471C159.944 376.471 159.892 376.416 159.891 376.415C159.889 376.413 159.835 376.361 159.835 376.141H158.604C158.604 376.551 158.707 376.971 159.02 377.285C159.334 377.599 159.755 377.702 160.165 377.702V376.471ZM159.835 376.141V358.533H158.604V376.141H159.835ZM159.778 358.275L149.792 336.708L148.675 337.225L158.661 358.792L159.778 358.275ZM149.784 336.691C149.793 336.708 149.796 336.72 149.797 336.723C149.799 336.727 149.798 336.726 149.797 336.718C149.794 336.701 149.79 336.667 149.79 336.612H148.559C148.559 336.801 148.58 337.035 148.683 337.242L149.784 336.691ZM149.79 336.612C149.79 336.479 149.817 336.413 149.835 336.382C149.851 336.357 149.88 336.322 149.956 336.288L149.456 335.163C149.179 335.287 148.942 335.479 148.78 335.749C148.621 336.014 148.559 336.312 148.559 336.612H149.79ZM149.982 336.276C149.957 336.289 149.94 336.293 149.939 336.294C149.936 336.295 149.941 336.293 149.956 336.291C149.987 336.286 150.04 336.282 150.12 336.282V335.051C149.918 335.051 149.65 335.066 149.431 335.175L149.982 336.276ZM150.12 336.282C150.223 336.282 150.269 336.305 150.289 336.318C150.309 336.33 150.346 336.361 150.385 336.449L151.51 335.949C151.391 335.682 151.211 335.447 150.955 335.282C150.7 335.118 150.411 335.051 150.12 335.051V336.282ZM150.388 336.457L159.606 356.428L160.724 355.912L151.506 335.941L150.388 336.457ZM160.724 356.428L169.941 336.457L168.823 335.941L159.606 355.912L160.724 356.428ZM169.945 336.449C169.984 336.361 170.02 336.33 170.04 336.318C170.06 336.305 170.106 336.282 170.209 336.282V335.051C169.918 335.051 169.63 335.118 169.374 335.282C169.118 335.447 168.938 335.682 168.82 335.949L169.945 336.449ZM170.209 336.282C170.29 336.282 170.342 336.286 170.373 336.291C170.388 336.293 170.393 336.295 170.391 336.294C170.389 336.293 170.373 336.289 170.348 336.276L170.898 335.175C170.679 335.066 170.412 335.051 170.209 335.051V336.282ZM193.198 374.782L192.757 374.352L192.757 374.353L193.198 374.782ZM176.477 374.782L176.918 374.353L176.917 374.352L176.477 374.782ZM176.477 337.794L176.041 337.359L176.036 337.364L176.477 337.794ZM179.726 335.903L179.59 335.303L179.575 335.306L179.56 335.311L179.726 335.903ZM192.489 337.794L192.93 337.364L192.924 337.359L192.489 337.794ZM193.907 345.121L193.826 345.731L193.866 345.736H193.907V345.121ZM191.13 339.094L190.679 339.513L190.687 339.521L190.695 339.529L191.13 339.094ZM180.14 337.735L180.295 338.33L180.305 338.328L180.14 337.735ZM177.836 339.094L178.271 339.529L178.277 339.522L178.284 339.516L177.836 339.094ZM177.836 373.482L178.279 373.055L178.271 373.047L177.836 373.482ZM191.898 373.482L191.463 373.047L191.455 373.055L191.898 373.482ZM193.73 362.492H194.345V361.876H193.73V362.492ZM185.458 362.256L184.977 362.64L185.02 362.694L185.073 362.736L185.458 362.256ZM195.325 360.897L195.76 360.461L195.717 360.418L195.667 360.385L195.325 360.897ZM194.946 368.401C194.946 370.908 194.202 372.871 192.757 374.352L193.639 375.212C195.345 373.462 196.177 371.171 196.177 368.401H194.946ZM192.757 374.353C191.478 375.668 189.72 376.353 187.408 376.353V377.584C189.98 377.584 192.082 376.811 193.639 375.211L192.757 374.353ZM187.408 376.353H182.267V377.584H187.408V376.353ZM182.267 376.353C179.955 376.353 178.197 375.668 176.918 374.353L176.036 375.211C177.592 376.811 179.695 377.584 182.267 377.584V376.353ZM176.917 374.352C175.473 372.871 174.729 370.908 174.729 368.401H173.498C173.498 371.171 174.329 373.462 176.036 375.212L176.917 374.352ZM174.729 368.401V344.057H173.498V368.401H174.729ZM174.729 344.057C174.729 341.634 175.469 339.708 176.917 338.224L176.036 337.364C174.333 339.11 173.498 341.36 173.498 344.057H174.729ZM176.912 338.229C177.742 337.399 178.732 336.822 179.893 336.496L179.56 335.311C178.2 335.693 177.024 336.376 176.041 337.359L176.912 338.229ZM179.863 336.503C180.688 336.316 181.489 336.223 182.267 336.223V334.992C181.391 334.992 180.498 335.097 179.59 335.303L179.863 336.503ZM182.267 336.223H186.699V334.992H182.267V336.223ZM186.699 336.223C188.967 336.223 190.731 336.906 192.054 338.229L192.924 337.359C191.332 335.767 189.235 334.992 186.699 334.992V336.223ZM192.048 338.224C193.493 339.704 194.237 341.667 194.237 344.175H195.468C195.468 341.405 194.636 339.114 192.93 337.364L192.048 338.224ZM194.237 344.175C194.237 344.395 194.182 344.448 194.181 344.449C194.179 344.45 194.127 344.505 193.907 344.505V345.736C194.317 345.736 194.738 345.633 195.051 345.319C195.365 345.006 195.468 344.585 195.468 344.175H194.237ZM193.988 344.511C193.79 344.484 193.725 344.427 193.704 344.403C193.684 344.38 193.636 344.311 193.636 344.116H192.405C192.405 344.512 192.506 344.906 192.781 345.218C193.055 345.529 193.433 345.678 193.826 345.731L193.988 344.511ZM193.636 344.116C193.636 341.895 192.961 340.054 191.565 338.659L190.695 339.529C191.82 340.654 192.405 342.162 192.405 344.116H193.636ZM191.581 338.675C190.41 337.414 188.749 336.824 186.699 336.824V338.055C188.509 338.055 189.802 338.568 190.679 339.513L191.581 338.675ZM186.699 336.824H182.267V338.055H186.699V336.824ZM182.267 336.824C181.5 336.824 180.736 336.931 179.975 337.142L180.305 338.328C180.962 338.145 181.616 338.055 182.267 338.055V336.824ZM179.985 337.139C178.969 337.404 178.099 337.916 177.387 338.672L178.284 339.516C178.833 338.932 179.499 338.538 180.295 338.33L179.985 337.139ZM177.4 338.659C176.003 340.056 175.329 341.919 175.329 344.175H176.56C176.56 342.178 177.148 340.652 178.271 339.529L177.4 338.659ZM175.329 344.175V368.46H176.56V344.175H175.329ZM175.329 368.46C175.329 370.68 176.005 372.522 177.4 373.917L178.271 373.047C177.145 371.921 176.56 370.414 176.56 368.46H175.329ZM177.393 373.909C178.598 375.16 180.251 375.752 182.267 375.752V374.521C180.502 374.521 179.2 374.01 178.279 373.055L177.393 373.909ZM182.267 375.752H187.408V374.521H182.267V375.752ZM187.408 375.752C189.459 375.752 191.133 375.162 192.341 373.909L191.455 373.055C190.536 374.008 189.217 374.521 187.408 374.521V375.752ZM192.333 373.917C193.691 372.559 194.345 370.757 194.345 368.578H193.114C193.114 370.496 192.547 371.962 191.463 373.047L192.333 373.917ZM194.345 368.578V362.492H193.114V368.578H194.345ZM193.73 361.876H186.167V363.107H193.73V361.876ZM186.167 361.876C186.017 361.876 185.92 361.837 185.842 361.775L185.073 362.736C185.39 362.989 185.765 363.107 186.167 363.107V361.876ZM185.938 361.871C185.862 361.775 185.837 361.692 185.837 361.606H184.606C184.606 361.992 184.739 362.342 184.977 362.64L185.938 361.871ZM185.837 361.606C185.837 361.385 185.892 361.333 185.893 361.332C185.894 361.33 185.947 361.276 186.167 361.276V360.045C185.757 360.045 185.336 360.148 185.023 360.461C184.709 360.775 184.606 361.196 184.606 361.606H185.837ZM186.167 361.276H194.616V360.045H186.167V361.276ZM194.616 361.276C194.708 361.276 194.828 361.305 194.984 361.409L195.667 360.385C195.35 360.173 194.997 360.045 194.616 360.045V361.276ZM194.89 361.332C194.891 361.333 194.946 361.385 194.946 361.606H196.177C196.177 361.196 196.074 360.775 195.76 360.461L194.89 361.332ZM194.946 361.606V368.401H196.177V361.606H194.946ZM219.669 335.726L219.394 336.276L219.406 336.283L219.419 336.288L219.669 335.726ZM220.083 336.967L219.532 336.691L219.528 336.7L219.524 336.709L220.083 336.967ZM210.156 358.533L209.597 358.276L209.541 358.398V358.533H210.156ZM208.265 358.533H208.881V358.398L208.824 358.275L208.265 358.533ZM198.28 336.967L198.838 336.708L198.835 336.7L198.83 336.691L198.28 336.967ZM198.753 335.726L199.003 336.288L199.015 336.283L199.028 336.276L198.753 335.726ZM199.993 336.199L199.431 336.449L199.435 336.457L199.993 336.199ZM209.211 356.17L208.652 356.428L209.211 357.638L209.77 356.428L209.211 356.17ZM218.428 336.199L218.987 336.457L218.991 336.449L218.428 336.199ZM219.419 336.288C219.507 336.327 219.538 336.364 219.55 336.384C219.563 336.404 219.585 336.45 219.585 336.553H220.816C220.816 336.262 220.75 335.974 220.586 335.718C220.421 335.462 220.186 335.282 219.919 335.163L219.419 336.288ZM219.585 336.553C219.585 336.544 219.587 336.551 219.58 336.576C219.572 336.601 219.558 336.639 219.532 336.691L220.633 337.242C220.735 337.037 220.816 336.802 220.816 336.553H219.585ZM219.524 336.709L209.597 358.276L210.715 358.791L220.642 337.224L219.524 336.709ZM209.541 358.533V376.141H210.772V358.533H209.541ZM209.541 376.141C209.541 376.361 209.486 376.413 209.485 376.415C209.483 376.416 209.431 376.471 209.211 376.471V377.702C209.621 377.702 210.041 377.599 210.355 377.285C210.669 376.971 210.772 376.551 210.772 376.141H209.541ZM209.211 376.471C208.991 376.471 208.938 376.416 208.937 376.415C208.936 376.413 208.881 376.361 208.881 376.141H207.65C207.65 376.551 207.753 376.971 208.067 377.285C208.38 377.599 208.801 377.702 209.211 377.702V376.471ZM208.881 376.141V358.533H207.65V376.141H208.881ZM208.824 358.275L198.838 336.708L197.721 337.225L207.707 358.792L208.824 358.275ZM198.83 336.691C198.839 336.708 198.842 336.72 198.844 336.723C198.845 336.727 198.844 336.726 198.843 336.718C198.84 336.701 198.836 336.667 198.836 336.612H197.605C197.605 336.801 197.626 337.035 197.729 337.242L198.83 336.691ZM198.836 336.612C198.836 336.479 198.863 336.413 198.882 336.382C198.897 336.357 198.926 336.322 199.003 336.288L198.503 335.163C198.225 335.287 197.988 335.479 197.826 335.749C197.667 336.014 197.605 336.312 197.605 336.612H198.836ZM199.028 336.276C199.003 336.289 198.987 336.293 198.985 336.294C198.982 336.295 198.987 336.293 199.002 336.291C199.033 336.286 199.086 336.282 199.166 336.282V335.051C198.964 335.051 198.696 335.066 198.477 335.175L199.028 336.276ZM199.166 336.282C199.269 336.282 199.315 336.305 199.336 336.318C199.355 336.33 199.392 336.361 199.431 336.449L200.556 335.949C200.437 335.682 200.257 335.447 200.001 335.282C199.746 335.118 199.457 335.051 199.166 335.051V336.282ZM199.435 336.457L208.652 356.428L209.77 355.912L200.552 335.941L199.435 336.457ZM209.77 356.428L218.987 336.457L217.869 335.941L208.652 355.912L209.77 356.428ZM218.991 336.449C219.03 336.361 219.067 336.33 219.086 336.318C219.106 336.305 219.152 336.282 219.255 336.282V335.051C218.965 335.051 218.676 335.118 218.42 335.282C218.164 335.447 217.984 335.682 217.866 335.949L218.991 336.449ZM219.255 336.282C219.336 336.282 219.389 336.286 219.42 336.291C219.434 336.293 219.44 336.295 219.437 336.294C219.435 336.293 219.419 336.289 219.394 336.276L219.944 335.175C219.725 335.066 219.458 335.051 219.255 335.051V336.282ZM249.394 376.85L249.829 377.285V377.285L249.394 376.85ZM247.857 343.762L247.246 343.688L247.242 343.725V343.762H247.857ZM248.212 340.807L248.823 340.881L247.613 340.666L248.212 340.807ZM247.503 343.821L248.09 344.004L248.097 343.983L248.102 343.962L247.503 343.821ZM237.34 376.436L236.752 376.253L236.725 376.343V376.436H237.34ZM235.863 376.909L235.428 377.344L235.459 377.375L235.494 377.401L235.863 376.909ZM235.627 376.614L235.043 376.808L235.056 376.85L235.076 376.889L235.627 376.614ZM235.567 376.436L234.98 376.619L234.984 376.631L235.567 376.436ZM225.405 343.821L224.805 343.962L224.81 343.983L224.817 344.004L225.405 343.821ZM224.696 340.807L225.295 340.666L224.084 340.881L224.696 340.807ZM225.05 343.762H225.666V343.725L225.661 343.688L225.05 343.762ZM223.159 376.141H222.544V376.179L222.549 376.217L223.159 376.141ZM224.991 336.376L225.578 336.192L225.574 336.178L225.569 336.166L224.991 336.376ZM228.773 348.429L229.36 348.246L229.36 348.245L228.773 348.429ZM236.454 373.009L235.866 373.193L236.455 375.077L237.041 373.192L236.454 373.009ZM245.021 345.475L244.434 345.292L244.434 345.292L245.021 345.475ZM247.857 336.376L247.279 336.166L247.274 336.179L247.27 336.193L247.857 336.376ZM248.803 336.341C248.901 336.341 248.962 336.354 248.996 336.365C249.012 336.371 249.022 336.376 249.026 336.378C249.03 336.381 249.032 336.382 249.032 336.383C249.033 336.383 249.034 336.384 249.037 336.389C249.039 336.393 249.044 336.403 249.05 336.419C249.061 336.453 249.074 336.514 249.074 336.612H250.304C250.304 336.222 250.206 335.816 249.903 335.512C249.599 335.208 249.193 335.11 248.803 335.11V336.341ZM249.074 336.612V376.141H250.304V336.612H249.074ZM249.074 376.141C249.074 376.252 249.041 376.332 248.958 376.415L249.829 377.285C250.14 376.974 250.304 376.582 250.304 376.141H249.074ZM248.958 376.415C248.924 376.449 248.887 376.471 248.803 376.471V377.702C249.191 377.702 249.548 377.566 249.829 377.285L248.958 376.415ZM248.803 376.471C248.582 376.471 248.53 376.416 248.529 376.415C248.527 376.413 248.473 376.361 248.473 376.141H247.242C247.242 376.551 247.345 376.971 247.658 377.285C247.972 377.599 248.393 377.702 248.803 377.702V376.471ZM248.473 376.141V343.762H247.242V376.141H248.473ZM248.468 343.835L248.823 340.881L247.601 340.734L247.246 343.688L248.468 343.835ZM247.613 340.666L246.904 343.68L248.102 343.962L248.811 340.948L247.613 340.666ZM246.915 343.638L236.752 376.253L237.928 376.619L248.09 344.004L246.915 343.638ZM236.725 376.436C236.725 376.47 236.719 376.47 236.727 376.452C236.737 376.432 236.751 376.419 236.755 376.417C236.755 376.416 236.75 376.42 236.736 376.426C236.722 376.432 236.701 376.439 236.671 376.446C236.609 376.46 236.519 376.471 236.395 376.471V377.702C236.761 377.702 237.145 377.642 237.452 377.431C237.801 377.191 237.955 376.824 237.955 376.436H236.725ZM236.395 376.471C236.331 376.471 236.283 376.455 236.232 376.417L235.494 377.401C235.758 377.599 236.064 377.702 236.395 377.702V376.471ZM236.298 376.474C236.25 376.426 236.217 376.389 236.196 376.362C236.173 376.333 236.171 376.326 236.177 376.338L235.076 376.889C235.161 377.058 235.297 377.213 235.428 377.344L236.298 376.474ZM236.21 376.419L236.151 376.242L234.984 376.631L235.043 376.808L236.21 376.419ZM236.155 376.253L225.992 343.638L224.817 344.004L234.98 376.619L236.155 376.253ZM226.004 343.68L225.295 340.666L224.096 340.948L224.805 343.962L226.004 343.68ZM224.084 340.881L224.439 343.835L225.661 343.688L225.307 340.734L224.084 340.881ZM224.435 343.762V376.141H225.666V343.762H224.435ZM224.435 376.141C224.435 376.361 224.38 376.413 224.379 376.415C224.377 376.416 224.325 376.471 224.105 376.471V377.702C224.515 377.702 224.935 377.599 225.249 377.285C225.563 376.971 225.666 376.551 225.666 376.141H224.435ZM224.105 376.471C223.951 376.471 223.906 376.431 223.89 376.415C223.863 376.388 223.799 376.3 223.77 376.065L222.549 376.217C222.598 376.612 222.732 376.997 223.02 377.285C223.319 377.584 223.707 377.702 224.105 377.702V376.471ZM223.775 376.141V336.612H222.544V376.141H223.775ZM223.775 336.612C223.775 336.525 223.788 336.476 223.797 336.453C223.805 336.434 223.812 336.426 223.819 336.42C223.84 336.403 223.939 336.341 224.223 336.341V335.11C223.798 335.11 223.365 335.197 223.031 335.475C222.676 335.771 222.544 336.189 222.544 336.612H223.775ZM224.223 336.341C224.248 336.341 224.26 336.345 224.264 336.347C224.268 336.348 224.274 336.35 224.283 336.358C224.304 336.376 224.357 336.434 224.413 336.586L225.569 336.166C225.467 335.884 225.313 335.617 225.078 335.419C224.833 335.211 224.537 335.11 224.223 335.11V336.341ZM224.404 336.56L228.185 348.614L229.36 348.245L225.578 336.192L224.404 336.56ZM228.185 348.613L235.866 373.193L237.041 372.826L229.36 348.246L228.185 348.613ZM237.041 373.192L245.609 345.658L244.434 345.292L235.866 372.826L237.041 373.192ZM245.609 345.658L248.445 336.559L247.27 336.193L244.434 345.292L245.609 345.658ZM248.436 336.586C248.48 336.465 248.529 336.417 248.561 336.396C248.594 336.373 248.661 336.341 248.803 336.341V335.11C248.472 335.11 248.145 335.187 247.863 335.381C247.58 335.576 247.392 335.854 247.279 336.166L248.436 336.586ZM277.095 368.519H277.71V368.478L277.705 368.437L277.095 368.519ZM274.672 374.9L274.237 374.465L274.231 374.471L274.672 374.9ZM257.951 374.9L258.392 374.471L258.391 374.47L257.951 374.9ZM257.951 337.912L257.525 337.468L257.515 337.477L257.505 337.488L257.951 337.912ZM261.201 336.08L261.354 336.676L261.362 336.674L261.37 336.672L261.201 336.08ZM273.963 337.912L274.398 337.477V337.477L273.963 337.912ZM276.031 345.002L275.596 344.567L276.031 345.002ZM272.663 339.212L273.105 338.784L273.099 338.777L272.663 339.212ZM261.614 337.853L261.456 337.258L261.434 337.264L261.413 337.271L261.614 337.853ZM259.31 339.212L259.745 339.647L259.753 339.639L259.761 339.631L259.31 339.212ZM259.31 373.659L258.868 374.088L258.875 374.094L259.31 373.659ZM273.372 373.6L272.93 373.172L272.929 373.173L273.372 373.6ZM276.479 368.519C276.479 371.022 275.719 372.983 274.237 374.465L275.108 375.335C276.856 373.587 277.71 371.294 277.71 368.519H276.479ZM274.231 374.471C272.952 375.786 271.194 376.471 268.882 376.471V377.702C271.454 377.702 273.557 376.929 275.113 375.329L274.231 374.471ZM268.882 376.471H263.741V377.702H268.882V376.471ZM263.741 376.471C261.429 376.471 259.671 375.786 258.392 374.471L257.51 375.329C259.067 376.929 261.169 377.702 263.741 377.702V376.471ZM258.391 374.47C256.947 372.99 256.203 371.027 256.203 368.519H254.972C254.972 371.289 255.804 373.58 257.51 375.33L258.391 374.47ZM256.203 368.519V368.223H254.972V368.519H256.203ZM256.203 368.223V344.234H254.972V368.223H256.203ZM256.203 344.234C256.203 341.811 256.943 339.862 258.397 338.337L257.505 337.488C255.807 339.271 254.972 341.537 254.972 344.234H256.203ZM258.377 338.356C259.249 337.521 260.24 336.964 261.354 336.676L261.047 335.484C259.72 335.827 258.544 336.492 257.525 337.468L258.377 338.356ZM261.37 336.672C262.142 336.452 262.932 336.341 263.741 336.341V335.11C262.818 335.11 261.914 335.236 261.032 335.489L261.37 336.672ZM263.741 336.341H268.173V335.11H263.741V336.341ZM268.173 336.341C270.442 336.341 272.205 337.024 273.528 338.347L274.398 337.477C272.806 335.885 270.71 335.11 268.173 335.11V336.341ZM273.528 338.347C274.973 339.792 275.711 341.676 275.711 344.057H276.942C276.942 341.396 276.105 339.183 274.398 337.477L273.528 338.347ZM275.711 344.057V344.353H276.942V344.057H275.711ZM275.711 344.353C275.711 344.397 275.7 344.464 275.596 344.567L276.467 345.438C276.757 345.147 276.942 344.781 276.942 344.353H275.711ZM275.596 344.567C275.58 344.583 275.535 344.623 275.381 344.623V345.854C275.779 345.854 276.167 345.737 276.467 345.438L275.596 344.567ZM275.381 344.623C275.29 344.623 275.238 344.61 275.211 344.6C275.188 344.592 275.182 344.584 275.178 344.58C275.169 344.57 275.111 344.492 275.111 344.234H273.88C273.88 344.646 273.969 345.07 274.255 345.395C274.554 345.734 274.97 345.854 275.381 345.854V344.623ZM275.111 344.234C275.111 342.019 274.458 340.18 273.105 338.784L272.221 339.64C273.311 340.765 273.88 342.274 273.88 344.234H275.111ZM273.099 338.777C271.899 337.577 270.314 337.001 268.409 337.001V338.232C270.05 338.232 271.3 338.72 272.228 339.647L273.099 338.777ZM268.409 337.001H263.741V338.232H268.409V337.001ZM263.741 337.001C262.878 337.001 262.113 337.083 261.456 337.258L261.773 338.448C262.297 338.308 262.95 338.232 263.741 338.232V337.001ZM261.413 337.271C260.333 337.645 259.463 338.142 258.859 338.793L259.761 339.631C260.181 339.179 260.848 338.77 261.816 338.435L261.413 337.271ZM258.875 338.777C257.477 340.175 256.804 342.037 256.804 344.293H258.035C258.035 342.296 258.622 340.77 259.745 339.647L258.875 338.777ZM256.804 344.293V368.519H258.035V344.293H256.804ZM256.804 368.519C256.804 370.776 257.477 372.653 258.868 374.088L259.752 373.231C258.622 372.066 258.035 370.516 258.035 368.519H256.804ZM258.875 374.094C260.082 375.301 261.732 375.87 263.741 375.87V374.639C261.97 374.639 260.665 374.144 259.745 373.224L258.875 374.094ZM263.741 375.87H268.882V374.639H263.741V375.87ZM268.882 375.87C270.933 375.87 272.607 375.28 273.815 374.027L272.929 373.173C272.01 374.126 270.691 374.639 268.882 374.639V375.87ZM273.814 374.028C275.167 372.632 275.82 370.793 275.82 368.578H274.589C274.589 370.538 274.02 372.048 272.93 373.172L273.814 374.028ZM275.82 368.578C275.82 368.378 275.873 368.334 275.879 368.329C275.899 368.311 275.991 368.248 276.268 368.248V367.017C275.835 367.017 275.395 367.112 275.061 367.409C274.713 367.718 274.589 368.148 274.589 368.578H275.82ZM276.268 368.248C276.322 368.248 276.349 368.256 276.359 368.26C276.367 368.264 276.372 368.267 276.379 368.274C276.397 368.293 276.455 368.374 276.485 368.6L277.705 368.437C277.656 368.072 277.537 367.71 277.279 367.434C277.005 367.14 276.643 367.017 276.268 367.017V368.248ZM285.013 374.9L284.572 375.33L284.578 375.335L285.013 374.9ZM282.886 336.021L282.451 335.586V335.586L282.886 336.021ZM286.313 373.6L285.871 374.028L285.878 374.035L286.313 373.6ZM303.27 375.55L302.79 375.934L302.833 375.988L302.886 376.031L303.27 375.55ZM302.621 376.471H290.803V377.702H302.621V376.471ZM290.803 376.471C288.534 376.471 286.771 375.788 285.448 374.465L284.578 375.335C286.17 376.927 288.266 377.702 290.803 377.702V376.471ZM285.453 374.47C284.005 372.986 283.265 371.06 283.265 368.637H282.034C282.034 371.334 282.869 373.584 284.572 375.33L285.453 374.47ZM283.265 368.637V336.671H282.034V368.637H283.265ZM283.265 336.671C283.265 336.518 283.305 336.473 283.321 336.457L282.451 335.586C282.151 335.885 282.034 336.273 282.034 336.671H283.265ZM283.321 336.457C283.425 336.353 283.491 336.341 283.536 336.341V335.11C283.107 335.11 282.741 335.296 282.451 335.586L283.321 336.457ZM283.536 336.341C283.756 336.341 283.808 336.396 283.81 336.397C283.811 336.399 283.866 336.451 283.866 336.671H285.097C285.097 336.261 284.994 335.841 284.68 335.527C284.366 335.213 283.946 335.11 283.536 335.11V336.341ZM283.866 336.671V368.519H285.097V336.671H283.866ZM283.866 368.519C283.866 370.77 284.516 372.63 285.871 374.028L286.755 373.172C285.668 372.05 285.097 370.522 285.097 368.519H283.866ZM285.878 374.035C287.12 375.277 288.786 375.87 290.803 375.87V374.639C289.039 374.639 287.712 374.129 286.748 373.165L285.878 374.035ZM290.803 375.87H302.621V374.639H290.803V375.87ZM302.621 375.87C302.729 375.87 302.761 375.898 302.79 375.934L303.751 375.166C303.465 374.808 303.063 374.639 302.621 374.639V375.87ZM302.886 376.031C302.925 376.062 302.938 376.083 302.942 376.091C302.945 376.098 302.95 376.111 302.95 376.141H304.181C304.181 375.704 303.987 375.335 303.655 375.069L302.886 376.031ZM302.95 376.141C302.95 376.361 302.896 376.413 302.894 376.415C302.893 376.416 302.841 376.471 302.621 376.471V377.702C303.031 377.702 303.451 377.599 303.765 377.285C304.078 376.971 304.181 376.551 304.181 376.141H302.95ZM325.966 374.9L326.401 375.335L326.407 375.33L326.412 375.325L325.966 374.9ZM309.363 374.9L308.928 375.335L309.363 374.9ZM308.536 335.608L308.055 335.992L308.098 336.046L308.151 336.088L308.536 335.608ZM310.663 373.6L310.221 374.028L310.228 374.035L310.663 373.6ZM324.607 373.6L325.042 374.035L325.049 374.028L324.607 373.6ZM327.714 336.258V368.637H328.945V336.258H327.714ZM327.714 368.637C327.714 371.018 326.975 372.948 325.52 374.476L326.412 375.325C328.108 373.543 328.945 371.298 328.945 368.637H327.714ZM325.531 374.465C324.208 375.788 322.444 376.471 320.176 376.471V377.702C322.712 377.702 324.809 376.927 326.401 375.335L325.531 374.465ZM320.176 376.471H315.153V377.702H320.176V376.471ZM315.153 376.471C312.884 376.471 311.121 375.788 309.798 374.465L308.928 375.335C310.52 376.927 312.616 377.702 315.153 377.702V376.471ZM309.798 374.465C308.353 373.02 307.615 371.136 307.615 368.755H306.384C306.384 371.416 307.221 373.629 308.928 375.335L309.798 374.465ZM307.615 368.755V368.46H306.384V368.755H307.615ZM307.615 368.46V336.258H306.384V368.46H307.615ZM307.615 336.258C307.615 336.037 307.67 335.985 307.671 335.984C307.672 335.982 307.725 335.928 307.945 335.928V334.697C307.535 334.697 307.114 334.8 306.801 335.113C306.487 335.427 306.384 335.848 306.384 336.258H307.615ZM307.945 335.928C307.975 335.928 307.988 335.933 307.994 335.937C308.003 335.941 308.024 335.953 308.055 335.992L309.016 335.223C308.751 334.892 308.382 334.697 307.945 334.697V335.928ZM308.151 336.088C308.187 336.117 308.216 336.149 308.216 336.258H309.447C309.447 335.815 309.278 335.413 308.92 335.127L308.151 336.088ZM308.216 336.258V368.578H309.447V336.258H308.216ZM308.216 368.578C308.216 370.793 308.868 372.632 310.221 374.028L311.105 373.172C310.016 372.048 309.447 370.538 309.447 368.578H308.216ZM310.228 374.035C311.437 375.245 313.108 375.811 315.153 375.811V374.58C313.338 374.58 312.016 374.083 311.098 373.165L310.228 374.035ZM315.153 375.811H320.176V374.58H315.153V375.811ZM320.176 375.811C322.185 375.811 323.835 375.242 325.042 374.035L324.172 373.165C323.252 374.085 321.947 374.58 320.176 374.58V375.811ZM325.049 374.028C326.395 372.639 327.054 370.863 327.054 368.755H325.823C325.823 370.586 325.261 372.041 324.165 373.172L325.049 374.028ZM327.054 368.755V368.519H325.823V368.755H327.054ZM327.054 368.519V336.258H325.823V368.519H327.054ZM327.054 336.258C327.054 336.037 327.109 335.985 327.11 335.984C327.112 335.982 327.164 335.928 327.384 335.928V334.697C326.974 334.697 326.554 334.8 326.24 335.113C325.926 335.427 325.823 335.848 325.823 336.258H327.054ZM327.384 335.928C327.604 335.928 327.656 335.982 327.658 335.984C327.659 335.985 327.714 336.037 327.714 336.258H328.945C328.945 335.848 328.842 335.427 328.528 335.113C328.215 334.8 327.794 334.697 327.384 334.697V335.928ZM353.201 374.841L352.766 374.406L352.76 374.412L353.201 374.841ZM334.471 376.791L333.99 377.175L334.033 377.229L334.086 377.271L334.471 376.791ZM336.598 337.853L336.163 337.418L336.157 337.423L336.152 337.429L336.598 337.853ZM353.201 337.853L353.642 337.423L353.636 337.418L353.201 337.853ZM353.201 352.684L352.76 352.254L352.745 352.269L352.731 352.286L353.201 352.684ZM351.547 353.924L351.285 353.368L350.251 353.854L351.226 354.45L351.547 353.924ZM353.201 355.224L352.746 355.638L352.755 355.649L352.766 355.66L353.201 355.224ZM337.957 339.153L337.522 338.718L337.515 338.724L337.957 339.153ZM336.066 353.038H335.451V353.654H336.066V353.038ZM347.765 353.038V353.654H347.772L347.779 353.653L347.765 353.038ZM351.901 351.384L352.336 351.819L352.343 351.812L351.901 351.384ZM351.901 339.153L352.343 338.725L352.336 338.718L351.901 339.153ZM351.901 373.6L352.336 374.035L352.343 374.028L351.901 373.6ZM351.901 356.524L351.45 356.943L351.459 356.953L351.901 356.524ZM336.066 354.87V354.254H335.451V354.87H336.066ZM336.066 375.195H335.451V375.811H336.066V375.195ZM354.949 363.792V368.578H356.18V363.792H354.949ZM354.949 368.578C354.949 371.044 354.207 372.965 352.766 374.406L353.636 375.276C355.347 373.566 356.18 371.311 356.18 368.578H354.949ZM352.76 374.412C351.481 375.727 349.723 376.412 347.411 376.412V377.643C349.983 377.643 352.085 376.87 353.642 375.27L352.76 374.412ZM347.411 376.412H343.629V377.643H347.411V376.412ZM343.629 376.412H335.18V377.643H343.629V376.412ZM335.18 376.412C335.03 376.412 334.933 376.372 334.855 376.31L334.086 377.271C334.403 377.525 334.778 377.643 335.18 377.643V376.412ZM334.951 376.406C334.875 376.311 334.85 376.228 334.85 376.141H333.619C333.619 376.527 333.752 376.877 333.99 377.175L334.951 376.406ZM334.85 376.141V344.175H333.619V376.141H334.85ZM334.85 344.175C334.85 341.752 335.59 339.803 337.044 338.277L336.152 337.429C334.454 339.212 333.619 341.477 333.619 344.175H334.85ZM337.033 338.288C338.356 336.965 340.119 336.282 342.388 336.282V335.051C339.851 335.051 337.755 335.826 336.163 337.418L337.033 338.288ZM342.388 336.282H347.411V335.051H342.388V336.282ZM347.411 336.282C349.679 336.282 351.443 336.965 352.766 338.288L353.636 337.418C352.044 335.826 349.947 335.051 347.411 335.051V336.282ZM352.76 338.283C354.202 339.76 354.949 341.76 354.949 344.353H356.18C356.18 341.509 355.352 339.176 353.642 337.423L352.76 338.283ZM354.949 344.353V346.421H356.18V344.353H354.949ZM354.949 346.421C354.949 348.844 354.209 350.77 352.76 352.254L353.642 353.113C355.345 351.368 356.18 349.118 356.18 346.421H354.949ZM352.731 352.286C352.361 352.724 351.883 353.086 351.285 353.368L351.809 354.481C352.55 354.133 353.175 353.667 353.671 353.081L352.731 352.286ZM351.226 354.45C351.904 354.864 352.404 355.262 352.746 355.638L353.656 354.81C353.211 354.32 352.607 353.851 351.868 353.399L351.226 354.45ZM352.766 355.66C354.203 357.097 354.949 359.055 354.949 361.606H356.18C356.18 358.799 355.35 356.503 353.636 354.789L352.766 355.66ZM354.949 361.606V363.792H356.18V361.606H354.949ZM337.515 338.724C336.126 340.157 335.451 342.013 335.451 344.234H336.682C336.682 342.28 337.267 340.749 338.399 339.581L337.515 338.724ZM335.451 344.234V353.038H336.682V344.234H335.451ZM336.066 353.654H343.688V352.423H336.066V353.654ZM343.688 353.654H347.765V352.423H343.688V353.654ZM347.779 353.653C349.61 353.611 351.146 353.009 352.336 351.819L351.466 350.949C350.529 351.886 349.308 352.387 347.751 352.423L347.779 353.653ZM352.343 351.812C353.698 350.413 354.348 348.553 354.348 346.302H353.117C353.117 348.306 352.546 349.833 351.459 350.956L352.343 351.812ZM354.348 346.302V345.711H353.117V346.302H354.348ZM354.348 345.711V344.175H353.117V345.711H354.348ZM354.348 344.175C354.348 341.96 353.696 340.121 352.343 338.725L351.459 339.581C352.548 340.706 353.117 342.215 353.117 344.175H354.348ZM352.336 338.718C351.094 337.476 349.428 336.883 347.411 336.883V338.114C349.175 338.114 350.502 338.624 351.466 339.588L352.336 338.718ZM347.411 336.883H342.388V338.114H347.411V336.883ZM342.388 336.883C340.406 336.883 338.761 337.478 337.522 338.718L338.392 339.588C339.358 338.622 340.667 338.114 342.388 338.114V336.883ZM352.343 374.028C353.698 372.63 354.348 370.77 354.348 368.519H353.117C353.117 370.522 352.546 372.05 351.459 373.172L352.343 374.028ZM354.348 368.519V363.792H353.117V368.519H354.348ZM354.348 363.792V361.547H353.117V363.792H354.348ZM354.348 361.547C354.348 359.331 353.696 357.493 352.343 356.096L351.459 356.953C352.548 358.077 353.117 359.586 353.117 361.547H354.348ZM352.352 356.105C351.194 354.858 349.641 354.254 347.765 354.254V355.485C349.356 355.485 350.56 355.985 351.45 356.943L352.352 356.105ZM347.765 354.254H336.066V355.485H347.765V354.254ZM335.451 354.87V375.195H336.682V354.87H335.451ZM336.066 375.811H346.82V374.58H336.066V375.811ZM346.82 375.811H347.411V374.58H346.82V375.811ZM347.411 375.811C349.456 375.811 351.127 375.245 352.336 374.035L351.466 373.165C350.548 374.083 349.226 374.58 347.411 374.58V375.811Z" fill="#1F2C4A"/>
<path d="M15.1629 323.284C15.3599 322.824 15.9015 321.61 16.7878 319.64C17.6741 317.703 18.823 315.176 20.2345 312.057C21.6788 308.906 23.2873 305.345 25.0599 301.373C26.8653 297.368 28.7692 293.133 30.7715 288.669C30.87 288.439 30.9685 288.144 31.067 287.783C31.1983 287.389 31.2639 287.011 31.2639 286.65C31.2639 286.289 31.149 285.994 30.9193 285.764C30.7223 285.501 30.2792 285.37 29.5898 285.37C28.2111 285.37 27.0622 285.846 26.1431 286.798C25.2568 287.717 24.5839 288.866 24.1243 290.245C23.6976 291.623 23.4842 292.986 23.4842 294.332C23.4842 294.66 23.4842 294.939 23.4842 295.169C23.5171 295.398 23.5499 295.628 23.5827 295.858C22.959 295.858 22.4502 295.645 22.0563 295.218C21.6953 294.758 21.4162 294.217 21.2193 293.593C21.0552 292.936 20.9731 292.346 20.9731 291.82C20.9731 290.737 21.2685 289.703 21.8594 288.718C22.4502 287.734 23.2052 286.847 24.1243 286.059C25.0763 285.272 26.1103 284.664 27.2264 284.238C28.3753 283.778 29.4913 283.548 30.5746 283.548C31.6578 283.548 32.5605 283.86 33.2827 284.484C34.0377 285.075 34.5957 286.158 34.9568 287.734C35.3507 289.309 35.5477 291.591 35.5477 294.578C35.5477 296.613 35.4656 298.779 35.3015 301.077C35.1702 303.375 35.0225 305.64 34.8583 307.872C34.6942 310.104 34.5793 312.139 34.5137 313.978C35.0389 311.975 35.7775 309.842 36.7294 307.577C37.7142 305.312 38.781 303.063 39.9299 300.831C41.1116 298.566 42.2769 296.449 43.4258 294.479C44.5747 292.51 45.6087 290.803 46.5279 289.358C47.447 287.914 48.1199 286.864 48.5466 286.207C49.0062 285.551 49.4001 285.058 49.7284 284.73C50.0566 284.369 50.4833 284.188 51.0086 284.188C51.4681 284.188 51.9933 284.303 52.5842 284.533C52.3544 285.124 52.0262 286.01 51.5994 287.192C51.2055 288.341 50.7952 289.752 50.3685 291.426C49.8432 293.429 49.318 295.71 48.7928 298.271C48.2676 300.798 47.7752 303.375 47.3157 306.001C46.8889 308.627 46.5443 311.105 46.2817 313.436C46.0191 315.734 45.8878 317.671 45.8878 319.246C45.8878 319.968 45.9206 320.526 45.9862 320.92C46.0519 321.314 46.1339 321.659 46.2324 321.954C46.3637 322.283 46.495 322.726 46.6263 323.284C45.5103 323.284 44.6568 323.103 44.0659 322.742C43.4751 322.381 43.0812 321.79 42.8842 320.97C42.6873 320.182 42.5888 319.115 42.5888 317.769C42.5888 313.863 43.0812 309.678 44.0659 305.213C45.0835 300.716 46.2324 296.055 47.5126 291.23C46.5607 292.444 45.5595 293.987 44.5091 295.858C43.4915 297.696 42.4575 299.699 41.4071 301.865C40.3895 303.999 39.4047 306.149 38.4527 308.315C37.5336 310.449 36.713 312.435 35.9908 314.273C35.2687 316.111 34.7106 317.638 34.3167 318.852C34.1198 318.918 33.9885 318.967 33.9228 319C33.8572 319.033 33.7423 319.049 33.5781 319.049C32.6918 319.049 32.101 318.524 31.8055 317.474C31.5429 316.423 31.4116 314.946 31.4116 313.042C31.4116 311.696 31.4445 310.104 31.5101 308.266C31.6086 306.395 31.7071 304.475 31.8055 302.505C31.904 300.536 31.9861 298.648 32.0517 296.843C32.1502 295.004 32.1995 293.429 32.1995 292.116C32.1995 291.459 32.183 290.918 32.1502 290.491C32.1502 290.064 32.1338 289.687 32.101 289.358C29.4749 295.464 27.2756 300.683 25.503 305.016C23.7304 309.316 22.2369 312.812 21.0223 315.504C19.8406 318.196 18.7902 320.165 17.8711 321.413C16.9519 322.66 16.0492 323.284 15.1629 323.284ZM57.5253 321.166C55.523 321.166 54.013 320.608 52.9954 319.492C52.0106 318.409 51.5182 317.063 51.5182 315.455C51.5182 313.978 51.8793 312.418 52.6015 310.777C53.3565 309.136 54.3413 307.593 55.5558 306.149C56.8032 304.704 58.1654 303.539 59.6426 302.653C61.1198 301.734 62.5805 301.274 64.0248 301.274C64.7798 301.274 65.4692 301.471 66.0928 301.865C66.7494 302.259 67.0776 303.063 67.0776 304.278C67.0776 305.525 66.7001 306.707 65.9451 307.823C65.223 308.906 64.2546 309.874 63.0401 310.728C61.8583 311.581 60.5453 312.287 59.101 312.845C57.6895 313.37 56.278 313.699 54.8665 313.83C54.8008 314.158 54.7516 314.47 54.7188 314.765C54.6859 315.061 54.6695 315.34 54.6695 315.603C54.6695 316.095 54.7188 316.587 54.8172 317.08C54.9485 317.572 55.1619 318.032 55.4573 318.458C55.7528 318.852 56.1467 319.164 56.6391 319.394C57.1643 319.624 57.8044 319.739 58.5594 319.739C59.9709 319.739 61.3659 319.345 62.7446 318.557C64.1233 317.736 65.4035 316.669 66.5852 315.356C67.7669 314.043 68.7681 312.599 69.5888 311.023L70.1796 311.467C69.2933 313.436 68.1609 315.143 66.7822 316.587C65.4363 318.032 63.9592 319.148 62.3507 319.936C60.7751 320.756 59.1666 321.166 57.5253 321.166ZM55.1127 312.894C55.999 312.599 57.0001 312.172 58.1162 311.614C59.2323 311.023 60.2991 310.334 61.3167 309.546C62.3671 308.758 63.2206 307.889 63.8771 306.937C64.5664 305.985 64.9111 304.983 64.9111 303.933C64.9111 303.572 64.8455 303.293 64.7142 303.096C64.5829 302.899 64.3038 302.801 63.8771 302.801C63.0893 302.801 62.2522 303.112 61.3659 303.736C60.4797 304.327 59.6262 305.115 58.8055 306.1C57.9849 307.084 57.2463 308.168 56.5898 309.349C55.9333 310.531 55.4409 311.713 55.1127 312.894ZM72.1496 320.28C70.8694 320.28 69.9174 319.87 69.2937 319.049C68.67 318.261 68.3582 317.293 68.3582 316.144C68.3582 315.389 68.4895 314.437 68.7521 313.288C69.0475 312.139 69.425 310.941 69.8846 309.694C70.3441 308.414 70.8694 307.216 71.4602 306.1C72.0839 304.983 72.7404 304.081 73.4298 303.391C74.1191 302.669 74.792 302.308 75.4485 302.308C75.744 302.308 75.9902 302.407 76.1871 302.604C76.4169 302.768 76.5318 303.03 76.5318 303.391C76.5318 303.785 76.2692 304.425 75.744 305.312C75.2516 306.198 74.6607 307.216 73.9714 308.364C73.282 309.513 72.6748 310.728 72.1496 312.008C71.6572 313.256 71.411 314.454 71.411 315.603C71.411 316.784 71.6079 317.572 72.0018 317.966C72.3957 318.36 73.003 318.557 73.8237 318.557C74.9397 318.557 76.1215 317.999 77.3688 316.883C78.649 315.767 79.9949 313.814 81.4064 311.023L81.8495 311.516C80.8976 314.339 79.5189 316.505 77.7135 318.015C75.9409 319.525 74.0863 320.28 72.1496 320.28ZM78.0582 297.729C77.533 297.729 77.057 297.598 76.6303 297.335C76.2363 297.072 76.0394 296.662 76.0394 296.104C76.0394 295.415 76.4333 294.824 77.2211 294.332C78.0418 293.806 78.846 293.544 79.6338 293.544C80.1262 293.544 80.5201 293.659 80.8155 293.888C81.111 294.118 81.2587 294.512 81.2587 295.07C81.2587 295.694 80.914 296.301 80.2247 296.892C79.5682 297.45 78.846 297.729 78.0582 297.729ZM96.3853 319.985C95.2364 319.985 94.3665 319.689 93.7756 319.098C93.2176 318.508 92.9386 317.753 92.9386 316.834C92.9386 316.144 93.0535 315.422 93.2832 314.667C93.5458 313.912 93.792 313.141 94.0218 312.353C94.2516 311.532 94.3665 310.744 94.3665 309.989C94.3665 309.07 94.1695 308.447 93.7756 308.118C93.4145 307.757 92.955 307.577 92.397 307.577C91.3794 307.577 90.3453 308.003 89.2949 308.857C88.2445 309.678 87.2269 310.744 86.2421 312.057C85.2574 313.338 84.3383 314.667 83.4848 316.046C82.6313 317.424 81.8763 318.655 81.2198 319.739C80.6946 319.739 80.2022 319.64 79.7427 319.443C79.2503 319.279 78.8728 319.016 78.6102 318.655C78.6102 318.491 78.7907 317.982 79.1518 317.129C79.4801 316.275 79.874 315.225 80.3335 313.978C80.7931 312.73 81.2034 311.45 81.5645 310.137C81.9256 308.824 82.1061 307.626 82.1061 306.543C82.3031 306.313 82.6149 306.083 83.0416 305.853C83.4684 305.624 83.9115 305.509 84.3711 305.509C85.2574 305.509 85.7005 305.935 85.7005 306.789C85.7005 307.314 85.5528 308.2 85.2574 309.448C84.9619 310.662 84.5844 311.942 84.1249 313.288C85.0112 311.942 85.9959 310.613 87.0792 309.3C88.1953 307.954 89.377 306.838 90.6244 305.952C91.8717 305.066 93.1191 304.622 94.3665 304.622C95.6467 304.622 96.5658 305.082 97.1238 306.001C97.7147 306.92 98.0101 307.938 98.0101 309.054C98.0101 310.071 97.846 311.023 97.5178 311.91C97.1895 312.763 96.8448 313.6 96.4837 314.421C96.1555 315.209 95.9914 316.013 95.9914 316.834C95.9914 317.523 96.1227 318.015 96.3853 318.311C96.6807 318.573 97.0418 318.705 97.4685 318.705C98.2892 318.705 99.1098 318.327 99.9304 317.572C100.751 316.784 101.539 315.799 102.294 314.618C103.082 313.436 103.771 312.238 104.362 311.023L104.904 311.663C104.214 313.272 103.443 314.7 102.589 315.947C101.736 317.195 100.8 318.179 99.7827 318.902C98.7651 319.624 97.6326 319.985 96.3853 319.985Z" fill="#1F2C4A"/>
</svg>
