<svg width="14" height="18" viewBox="0 0 14 18" fill="none" xmlns="http://www.w3.org/2000/svg">
<path d="M1 1H13M1 17H13M11.5 1V3.26441C11.5 3.93635 11.2744 4.58884 10.8594 5.1173L8.45808 8.17508C8.02186 8.73054 8.03222 9.51506 8.48296 10.0588L10.8096 12.8656C11.2558 13.4038 11.5 14.081 11.5 14.7802V17M2.5 1V3.26441C2.5 3.93635 2.72558 4.58884 3.14059 5.1173L5.54193 8.17508C5.97814 8.73054 5.96778 9.51506 5.51704 10.0588L3.19036 12.8656C2.74418 13.4038 2.5 14.081 2.5 14.7802V17" stroke="#F9B508" stroke-width="1.5" stroke-linecap="round" stroke-linejoin="round"/>
</svg>
