<svg width="18" height="19" viewBox="0 0 18 19" fill="none" xmlns="http://www.w3.org/2000/svg">
<rect width="18" height="19" fill="#1E1E1E"/>
<g id="Home" clip-path="url(#clip0_131_3317)">
<rect width="1440" height="1176" transform="translate(-137 -299)" fill="white"/>
<g id="Background">
<path id="Background_2" d="M397.191 218.947H386.243C454.349 191.736 502.606 125.118 502.606 47.4187V-189H167.655C65.8276 -189 -17 -106.172 -17 -4.34521V540.345C-17 642.172 65.8276 725 167.655 725H581.846V403.601C581.846 301.774 499.018 218.947 397.191 218.947ZM397.191 231.569C492.056 231.569 569.25 308.736 569.25 403.628V708.153L568.905 708.046C482.384 680.065 408.564 607.575 353.931 547.546C327.809 518.848 307.827 483.267 288.508 448.828C265.204 407.321 241.129 364.433 205.813 332.253C151.047 282.376 91.4173 256.866 9.1477 232.1H317.951C322.442 232.1 326.853 231.888 331.264 231.569H397.191ZM330.839 218.947H5.3212C21.2649 176.297 34.073 147.439 69.3618 113.665C94.9249 89.1913 130.426 71.1748 181.048 57.0115C196.167 52.7864 211.739 49.0397 226.912 45.4258C253.273 39.1014 280.563 32.5645 306.631 23.1045C353.984 5.91191 395.756 -20.6875 427.458 -53.7707C458.176 -85.8176 479.992 -124.986 489.984 -165.403V47.4453C489.984 137.979 419.672 212.356 330.812 218.973L330.839 218.947ZM167.655 -176.378H479.912C471.489 -135.19 449.885 -94.8258 418.582 -62.1677C388.183 -30.4398 348.005 -4.90324 302.406 11.6516C277.002 20.899 250.057 27.3296 223.936 33.6008C208.736 37.2413 193.032 41.0146 177.699 45.2929C144.563 54.5668 96.413 70.8294 60.8319 104.896C25.0117 139.201 11.3532 168.272 -4.43104 209.991V-4.34521C-4.37789 -99.2103 72.7897 -176.378 167.655 -176.378ZM-4.37789 540.345V240.763C81.3993 266.007 142.304 290.906 197.523 341.182C231.377 372.033 254.973 414.071 277.826 454.727C297.49 489.75 317.845 525.969 344.869 555.678C396.421 612.304 464.846 679.8 545.627 712.404H167.655C72.7897 712.404 -4.40446 635.237 -4.40446 540.345H-4.37789Z" fill="#E1E1E1" fill-opacity="0.2"/>
</g>
<g id="Sidebar">
<g id="Topic">
<path d="M-17 -8C-17 -10.7614 -14.7614 -13 -12 -13H258C260.761 -13 263 -10.7614 263 -8V27C263 29.7614 260.761 32 258 32H-12C-14.7614 32 -17 29.7614 -17 27V-8Z" fill="#D3F0F0"/>
<g id="Group 2">
<path id="Vector" d="M9 10.5V7.5M9 4.5V4.5752M11.1739 13.3261L9 17.5L7 13.3261H3C1.89543 13.3261 1 12.4307 1 11.3261V3.5C1 2.39543 1.89543 1.5 3 1.5H15C16.1046 1.5 17 2.39543 17 3.5V11.3261C17 12.4307 16.1046 13.3261 15 13.3261H11.1739Z" stroke="#1F2C4A" stroke-width="1.5" stroke-linecap="round" stroke-linejoin="round"/>
</g>
<path d="M-17 -8C-17 -10.7614 -14.7614 -13 -12 -13H258C260.761 -13 263 -10.7614 263 -8V27C263 29.7614 260.761 32 258 32H-12C-14.7614 32 -17 29.7614 -17 27V-8Z" stroke="#1F2C4A"/>
</g>
</g>
</g>
<defs>
<clipPath id="clip0_131_3317">
<rect width="1440" height="1176" fill="white" transform="translate(-137 -299)"/>
</clipPath>
</defs>
</svg>
