<svg width="15" height="19" viewBox="0 0 15 19" fill="none" xmlns="http://www.w3.org/2000/svg">
<path fill-rule="evenodd" clip-rule="evenodd" d="M5.83036 14.3304C5.63337 11.7487 3.58174 9.69702 1 9.50003C3.58174 9.30305 5.63337 7.25142 5.83036 4.66968C6.02734 7.25142 8.07897 9.30305 10.6607 9.50003C8.07897 9.69702 6.02734 11.7487 5.83036 14.3304Z" stroke="#1F2C4A" stroke-width="1.3" stroke-linecap="round" stroke-linejoin="round"/>
<path fill-rule="evenodd" clip-rule="evenodd" d="M11.8683 17.9532C11.7696 16.6624 10.7439 15.6367 9.45312 15.538C10.7439 15.4392 11.7696 14.4136 11.8683 13.1228C11.967 14.4136 12.9927 15.4392 14.2835 15.538C12.9927 15.6367 11.967 16.6624 11.8683 17.9532Z" stroke="#1F2C4A" stroke-width="1.3" stroke-linecap="round" stroke-linejoin="round"/>
<path fill-rule="evenodd" clip-rule="evenodd" d="M11.8683 1.04688C11.7696 2.33763 10.7439 3.36331 9.45312 3.46205C10.7439 3.5608 11.7696 4.58648 11.8683 5.87723C11.967 4.58648 12.9927 3.5608 14.2835 3.46205C12.9927 3.36331 11.967 2.33763 11.8683 1.04688Z" stroke="#1F2C4A" stroke-width="1.3" stroke-linecap="round" stroke-linejoin="round"/>
</svg>
