<svg width="23" height="19" viewBox="0 0 23 19" fill="none" xmlns="http://www.w3.org/2000/svg">
<path d="M19.375 11.3438C20.7611 12.3794 22 14.987 22 16.5937C22 17.0942 21.6348 17.5 21.1843 17.5H20.6875M15.4375 7.09865C16.3342 6.57994 16.9375 5.61042 16.9375 4.5C16.9375 3.38958 16.3342 2.42006 15.4375 1.90135M1.81569 17.5H16.1843C16.6348 17.5 17 17.0942 17 16.5937C17 13.4474 14.3714 10.8968 9 10.8968C3.62857 10.8968 1 13.4474 1 16.5937C1 17.0942 1.3652 17.5 1.81569 17.5ZM12 4.5C12 6.15685 10.6569 7.5 9 7.5C7.34314 7.5 6 6.15685 6 4.5C6 2.84315 7.34314 1.5 9 1.5C10.6569 1.5 12 2.84315 12 4.5Z" stroke="#1F2C4A" stroke-width="1.5" stroke-linecap="round"/>
</svg>
