<svg width="19" height="18" viewBox="0 0 19 18" fill="none" xmlns="http://www.w3.org/2000/svg">
<path d="M13.0961 3.56657L10.444 1.51331C10.1018 1.1711 9.33183 1 8.81851 1H5.56753C4.5409 1 3.42872 1.76997 3.17206 2.7966L1.11881 9.04191C0.691048 10.2396 1.46102 11.2663 2.7443 11.2663H6.16639C6.67971 11.2663 7.10747 11.694 7.02192 12.2929L6.59415 15.0306C6.42305 15.8005 6.93636 16.6561 7.70633 16.9127C8.39075 17.1694 9.24627 16.8272 9.58848 16.3139L13.0961 11.0952" fill="white"/>
<path d="M13.0961 3.56657L10.444 1.51331C10.1018 1.1711 9.33183 1 8.81851 1H5.56753C4.5409 1 3.42872 1.76997 3.17206 2.7966L1.11881 9.04191C0.691048 10.2396 1.46102 11.2663 2.7443 11.2663H6.16639C6.67971 11.2663 7.10747 11.694 7.02192 12.2929L6.59415 15.0306C6.42305 15.8005 6.93636 16.6561 7.70633 16.9127C8.39075 17.1694 9.24627 16.8272 9.58848 16.3139L13.0961 11.0952" stroke="#1F2C4A" stroke-width="1.3" stroke-miterlimit="10"/>
<path d="M17.4593 3.56666V11.9508C17.4593 13.1485 16.9459 13.5763 15.7482 13.5763H14.8927C13.695 13.5763 13.1816 13.1485 13.1816 11.9508V3.56666C13.1816 2.36892 13.695 1.94116 14.8927 1.94116H15.7482C16.9459 1.94116 17.4593 2.36892 17.4593 3.56666Z" fill="white" stroke="#1F2C4A" stroke-width="1.3" stroke-linecap="round" stroke-linejoin="round"/>
</svg>
