<svg width="50" height="50" viewBox="0 0 50 50" fill="none" xmlns="http://www.w3.org/2000/svg">
<rect width="50" height="50" rx="25" fill="#FDE1F2"/>
<path d="M18 18.0199V22.9899C18 24.8099 18 24.8099 19.72 25.9699L24.45 28.6999C25.16 29.1099 26.32 29.1099 27.03 28.6999L31.76 25.9699C33.48 24.8099 33.48 24.8099 33.48 22.9899V18.0199C33.48 16.1999 33.48 16.1999 31.76 15.0399L27.03 12.3099C26.32 11.8999 25.16 11.8999 24.45 12.3099L19.72 15.0399C18 16.1999 18 16.1999 18 18.0199Z" stroke="#CE3591" stroke-width="1.5" stroke-linecap="round" stroke-linejoin="round"/>
<path d="M31.2402 14.63V12C31.2402 10 30.2402 9 28.2402 9H23.2402C21.2402 9 20.2402 10 20.2402 12V14.56" stroke="#CE3591" stroke-width="1.5" stroke-linecap="round" stroke-linejoin="round"/>
<path d="M26.37 17.99L26.94 18.88C27.03 19.02 27.23 19.16 27.38 19.2L28.4 19.46C29.03 19.62 29.2 20.16 28.79 20.66L28.12 21.47C28.02 21.6 27.94 21.83 27.95 21.99L28.01 23.04C28.05 23.69 27.59 24.02 26.99 23.78L26.01 23.39C25.86 23.33 25.61 23.33 25.46 23.39L24.48 23.78C23.88 24.02 23.42 23.68 23.46 23.04L23.52 21.99C23.53 21.83 23.45 21.59 23.35 21.47L22.68 20.66C22.27 20.16 22.44 19.62 23.07 19.46L24.09 19.2C24.25 19.16 24.45 19.01 24.53 18.88L25.1 17.99C25.46 17.45 26.02 17.45 26.37 17.99Z" stroke="#CE3591" stroke-width="1.5" stroke-linecap="round" stroke-linejoin="round"/>
<path d="M10.816 40C10.7627 40 10.7173 39.9813 10.68 39.944C10.6427 39.9067 10.624 39.8613 10.624 39.808V34.6C10.624 34.5413 10.6427 34.4933 10.68 34.456C10.7173 34.4187 10.7627 34.4 10.816 34.4H14.336C14.3947 34.4 14.4427 34.4187 14.48 34.456C14.5173 34.4933 14.536 34.5413 14.536 34.6V35.128C14.536 35.1813 14.5173 35.2267 14.48 35.264C14.4427 35.3013 14.3947 35.32 14.336 35.32H11.704V36.736H14.16C14.2187 36.736 14.2667 36.7547 14.304 36.792C14.3413 36.824 14.36 36.8693 14.36 36.928V37.424C14.36 37.4827 14.3413 37.5307 14.304 37.568C14.2667 37.6 14.2187 37.616 14.16 37.616H11.704V39.08H14.4C14.4587 39.08 14.5067 39.0987 14.544 39.136C14.5813 39.1733 14.6 39.2213 14.6 39.28V39.808C14.6 39.8613 14.5813 39.9067 14.544 39.944C14.5067 39.9813 14.4587 40 14.4 40H10.816ZM15.2886 40C15.2406 40 15.2006 39.984 15.1686 39.952C15.1366 39.92 15.1206 39.88 15.1206 39.832C15.1206 39.816 15.1232 39.8 15.1286 39.784C15.1339 39.768 15.1392 39.752 15.1446 39.736L16.9366 37.144L15.2566 34.664C15.2406 34.632 15.2326 34.6 15.2326 34.568C15.2326 34.52 15.2486 34.48 15.2806 34.448C15.3126 34.416 15.3499 34.4 15.3926 34.4H16.2166C16.2806 34.4 16.3312 34.416 16.3686 34.448C16.4059 34.48 16.4379 34.5147 16.4646 34.552L17.6406 36.28L18.8246 34.552C18.8459 34.5147 18.8752 34.48 18.9126 34.448C18.9552 34.416 19.0086 34.4 19.0726 34.4H19.8486C19.8966 34.4 19.9366 34.416 19.9686 34.448C20.0006 34.48 20.0166 34.52 20.0166 34.568C20.0166 34.6 20.0059 34.632 19.9846 34.664L18.3126 37.144L20.1046 39.736C20.1152 39.752 20.1232 39.768 20.1286 39.784C20.1339 39.8 20.1366 39.816 20.1366 39.832C20.1366 39.88 20.1179 39.92 20.0806 39.952C20.0486 39.984 20.0112 40 19.9686 40H19.1206C19.0566 40 19.0059 39.984 18.9686 39.952C18.9312 39.92 18.9019 39.888 18.8806 39.856L17.6006 38.048L16.3446 39.856C16.3232 39.888 16.2939 39.92 16.2566 39.952C16.2192 39.984 16.1659 40 16.0966 40H15.2886ZM21.0894 40C21.0361 40 20.9908 39.9813 20.9534 39.944C20.9161 39.9067 20.8974 39.8613 20.8974 39.808V34.6C20.8974 34.5413 20.9161 34.4933 20.9534 34.456C20.9908 34.4187 21.0361 34.4 21.0894 34.4H23.2334C23.6494 34.4 24.0121 34.4667 24.3214 34.6C24.6308 34.728 24.8708 34.9253 25.0414 35.192C25.2121 35.4533 25.2974 35.7813 25.2974 36.176C25.2974 36.576 25.2121 36.9067 25.0414 37.168C24.8708 37.424 24.6308 37.616 24.3214 37.744C24.0121 37.872 23.6494 37.936 23.2334 37.936H22.0414V39.808C22.0414 39.8613 22.0228 39.9067 21.9854 39.944C21.9534 39.9813 21.9081 40 21.8494 40H21.0894ZM22.0254 37.048H23.1934C23.5028 37.048 23.7401 36.976 23.9054 36.832C24.0708 36.6827 24.1534 36.464 24.1534 36.176C24.1534 35.9093 24.0761 35.696 23.9214 35.536C23.7668 35.3707 23.5241 35.288 23.1934 35.288H22.0254V37.048ZM26.3629 40C26.3095 40 26.2642 39.9813 26.2269 39.944C26.1895 39.9067 26.1709 39.8613 26.1709 39.808V34.6C26.1709 34.5413 26.1895 34.4933 26.2269 34.456C26.2642 34.4187 26.3095 34.4 26.3629 34.4H29.8829C29.9415 34.4 29.9895 34.4187 30.0269 34.456C30.0642 34.4933 30.0829 34.5413 30.0829 34.6V35.128C30.0829 35.1813 30.0642 35.2267 30.0269 35.264C29.9895 35.3013 29.9415 35.32 29.8829 35.32H27.2509V36.736H29.7069C29.7655 36.736 29.8135 36.7547 29.8509 36.792C29.8882 36.824 29.9069 36.8693 29.9069 36.928V37.424C29.9069 37.4827 29.8882 37.5307 29.8509 37.568C29.8135 37.6 29.7655 37.616 29.7069 37.616H27.2509V39.08H29.9469C30.0055 39.08 30.0535 39.0987 30.0909 39.136C30.1282 39.1733 30.1469 39.2213 30.1469 39.28V39.808C30.1469 39.8613 30.1282 39.9067 30.0909 39.944C30.0535 39.9813 30.0055 40 29.9469 40H26.3629ZM31.3394 40C31.2861 40 31.2408 39.9813 31.2034 39.944C31.1661 39.9067 31.1474 39.8613 31.1474 39.808V34.6C31.1474 34.5413 31.1661 34.4933 31.2034 34.456C31.2408 34.4187 31.2861 34.4 31.3394 34.4H33.4114C34.0568 34.4 34.5661 34.5493 34.9394 34.848C35.3128 35.1467 35.4994 35.5813 35.4994 36.152C35.4994 36.5467 35.4008 36.8747 35.2034 37.136C35.0114 37.3973 34.7528 37.5867 34.4274 37.704L35.5954 39.744C35.6114 39.776 35.6194 39.8053 35.6194 39.832C35.6194 39.88 35.6008 39.92 35.5634 39.952C35.5314 39.984 35.4941 40 35.4514 40H34.7234C34.6328 40 34.5634 39.976 34.5154 39.928C34.4674 39.88 34.4301 39.832 34.4034 39.784L33.3714 37.888H32.2594V39.808C32.2594 39.8613 32.2408 39.9067 32.2034 39.944C32.1714 39.9813 32.1261 40 32.0674 40H31.3394ZM32.2594 36.984H33.3874C33.7128 36.984 33.9554 36.912 34.1154 36.768C34.2754 36.6187 34.3554 36.4107 34.3554 36.144C34.3554 35.8773 34.2754 35.6693 34.1154 35.52C33.9608 35.3653 33.7181 35.288 33.3874 35.288H32.2594V36.984ZM37.8918 40C37.8384 40 37.7931 39.9813 37.7558 39.944C37.7184 39.9067 37.6998 39.8613 37.6998 39.808V35.384H36.2198C36.1664 35.384 36.1211 35.3653 36.0838 35.328C36.0464 35.2907 36.0278 35.2453 36.0278 35.192V34.6C36.0278 34.5413 36.0464 34.4933 36.0838 34.456C36.1211 34.4187 36.1664 34.4 36.2198 34.4H40.2998C40.3584 34.4 40.4064 34.4187 40.4438 34.456C40.4811 34.4933 40.4998 34.5413 40.4998 34.6V35.192C40.4998 35.2453 40.4811 35.2907 40.4438 35.328C40.4064 35.3653 40.3584 35.384 40.2998 35.384H38.8278V39.808C38.8278 39.8613 38.8091 39.9067 38.7718 39.944C38.7344 39.9813 38.6864 40 38.6278 40H37.8918Z" fill="#CE3591"/>
</svg>
