<svg width="16" height="15" viewBox="0 0 16 15" fill="none" xmlns="http://www.w3.org/2000/svg">
<path d="M3.72841 11.7397V9.83216C3.72841 9.19849 4.22489 8.63015 4.93041 8.63015C5.56408 8.63015 6.13242 9.12663 6.13242 9.83216V11.6678C6.13242 12.9417 5.07413 14 3.80026 14C2.5264 14 1.4681 12.9352 1.4681 11.6678V7.64372C1.39624 3.97236 4.29675 1 7.9681 1C11.6395 1 14.5334 3.97236 14.5334 7.57186V11.596C14.5334 12.8698 13.4751 13.9281 12.2013 13.9281C10.9274 13.9281 9.86911 12.8698 9.86911 11.596V9.7603C9.86911 9.12663 10.3656 8.55829 11.0711 8.55829C11.7048 8.55829 12.2731 9.05477 12.2731 9.7603V11.7397" stroke="#CE3591" stroke-width="1.3" stroke-linecap="round" stroke-linejoin="round"/>
</svg>
