<svg width="20" height="18" viewBox="0 0 20 18" fill="none" xmlns="http://www.w3.org/2000/svg">
<path id="Logout" d="M7.48206 13V15C7.48206 15.5304 7.69455 16.0391 8.07277 16.4142C8.45099 16.7893 8.96398 17 9.49887 17L16.5577 17C17.0926 17 17.6056 16.7893 17.9838 16.4142C18.362 16.0391 18.5745 15.5304 18.5745 15L18.5745 3C18.5745 2.46957 18.362 1.96086 17.9838 1.58579C17.6056 1.21071 17.0926 1 16.5577 1L9.49887 1C8.96398 1 8.451 1.21071 8.07277 1.58579C7.69455 1.96086 7.48206 2.46957 7.48206 3V5M13.5325 9L1.43164 9M1.43164 9L4.45685 12M1.43164 9L4.45685 6" stroke="#1F2C4A" stroke-linecap="round" stroke-linejoin="round"/>
</svg>
