<svg width="26" height="26" viewBox="0 0 26 26" fill="none" xmlns="http://www.w3.org/2000/svg">
<path d="M20.5 1C22.9853 1 25 3.01471 25 5.49998L25 20.5C25 22.9853 22.9853 25 20.5 25L5.50011 25C3.01485 25 1.00014 22.9853 1.00014 20.5L1.00014 5.49998C1.00014 3.01471 3.01485 1 5.50012 1L20.5 1Z" fill="white"/>
<path d="M13.832 7.69669L19 13M19 13L13.832 18.3033M19 13L7.64477 13M1.00014 20.5L1.00014 5.49997C1.00014 3.01471 3.01485 1 5.50012 1L20.5 1C22.9853 1 25 3.01471 25 5.49997L25 20.5C25 22.9853 22.9853 25 20.5 25L5.50011 25C3.01485 25 1.00014 22.9853 1.00014 20.5Z" stroke="#1F2C4A" stroke-width="1.5" stroke-linecap="round" stroke-linejoin="round"/>
</svg>
