<svg width="15" height="18" viewBox="0 0 15 18" fill="none" xmlns="http://www.w3.org/2000/svg">
<path id="Notifications" d="M1.08335 13.8859L0.684506 13.5844H0.684506L1.08335 13.8859ZM2.00149 11.2702L1.50149 11.2641V11.2702H2.00149ZM2.02076 9.6887L2.52076 9.69479V9.6887H2.02076ZM13.5531 13.8986L13.9579 13.6051L13.9579 13.6051L13.5531 13.8986ZM12.6695 11.2702L12.1695 11.2638V11.2702H12.6695ZM12.6888 9.76707L13.1888 9.77348V9.76707H12.6888ZM1.48219 14.1875C1.99368 13.5109 2.50149 12.5012 2.50149 11.2702H1.50149C1.50149 12.222 1.10742 13.025 0.684506 13.5844L1.48219 14.1875ZM2.50145 11.2763L2.52072 9.69479L1.5208 9.68261L1.50153 11.2641L2.50145 11.2763ZM13.9579 13.6051C13.5527 13.0462 13.1695 12.2356 13.1695 11.2702H12.1695C12.1695 12.5027 12.6571 13.5146 13.1483 14.1921L13.9579 13.6051ZM13.1695 11.2766L13.1888 9.77348L12.1889 9.76066L12.1696 11.2638L13.1695 11.2766ZM13.1888 9.76707C13.1888 6.51158 10.5616 3.86842 7.31579 3.86842V4.86842C10.0048 4.86842 12.1888 7.05938 12.1888 9.76707H13.1888ZM13.2316 15.1316C13.6587 15.1316 13.9342 14.8303 14.0486 14.5602C14.1627 14.2909 14.1817 13.9138 13.9579 13.6051L13.1483 14.1921C13.1327 14.1706 13.1316 14.1543 13.1316 14.1541C13.1316 14.1538 13.1317 14.1557 13.131 14.1594C13.1303 14.1631 13.1292 14.1669 13.1278 14.1702C13.1242 14.1787 13.1238 14.1732 13.1381 14.162C13.1459 14.1558 13.1584 14.1479 13.1756 14.1416C13.1933 14.1351 13.2127 14.1316 13.2316 14.1316V15.1316ZM2.52076 9.6887C2.52076 7.02429 4.66981 4.86842 7.31579 4.86842V3.86842C4.11304 3.86842 1.52076 6.4765 1.52076 9.6887H2.52076ZM1.40076 14.1316C1.42017 14.1316 1.43995 14.1352 1.45799 14.142C1.47554 14.1485 1.48799 14.1566 1.49566 14.1628C1.50947 14.1739 1.50832 14.1786 1.50421 14.1686C1.50261 14.1647 1.50133 14.1602 1.50061 14.1559C1.50026 14.1539 1.5001 14.1522 1.50004 14.151C1.49997 14.1497 1.50002 14.1491 1.50001 14.1492C1.50001 14.1492 1.49976 14.153 1.49735 14.1599C1.49485 14.167 1.49019 14.1769 1.48219 14.1875L0.684506 13.5844C0.450939 13.8933 0.467492 14.2766 0.579251 14.5486C0.691162 14.821 0.966715 15.1316 1.40076 15.1316V14.1316ZM13.2316 14.1316H1.40076V15.1316H13.2316V14.1316ZM9.3421 14.6316C9.3421 15.6336 8.46578 16.5 7.31579 16.5V17.5C8.95629 17.5 10.3421 16.2457 10.3421 14.6316H9.3421ZM7.31579 16.5C6.1658 16.5 5.28947 15.6336 5.28947 14.6316H4.28947C4.28947 16.2457 5.67528 17.5 7.31579 17.5V16.5ZM8.5 2.68421C8.5 3.33823 7.96981 3.86842 7.31579 3.86842V4.86842C8.52209 4.86842 9.5 3.89052 9.5 2.68421H8.5ZM7.31579 3.86842C6.66177 3.86842 6.13158 3.33823 6.13158 2.68421H5.13158C5.13158 3.89052 6.10948 4.86842 7.31579 4.86842V3.86842ZM6.13158 2.68421C6.13158 2.03019 6.66177 1.5 7.31579 1.5V0.5C6.10948 0.5 5.13158 1.4779 5.13158 2.68421H6.13158ZM7.31579 1.5C7.96981 1.5 8.5 2.03019 8.5 2.68421H9.5C9.5 1.4779 8.52209 0.5 7.31579 0.5V1.5Z" fill="#1F2C4A"/>
</svg>
