<svg width="62" height="41" viewBox="0 0 62 41" fill="none" xmlns="http://www.w3.org/2000/svg">
<path d="M7.69665 31.7975L6.71759 32.0011L7.69665 31.7975ZM10.8129 36.2244L10.291 37.0774C10.3045 37.0856 10.3181 37.0935 10.3319 37.1011L10.8129 36.2244ZM16.1921 36.7177L16.5056 37.6673L16.1921 36.7177ZM2.4553 22.8306L1.94672 23.6916L1.95387 23.6958L2.4553 22.8306ZM1.03277 20.72L2.02171 20.5717L1.03277 20.72ZM1.77361 18.2851L2.51239 18.959L2.5162 18.9548L1.77361 18.2851ZM13.3569 5.44203L12.6149 4.77164L12.6143 4.77228L13.3569 5.44203ZM13.6786 5.13663L14.3094 5.91259L14.31 5.91215L13.6786 5.13663ZM29.8647 3.08884L29.3635 3.95418L29.3692 3.95743L29.8647 3.08884ZM26.5399 36.7834L26.0385 37.6486L26.0441 37.6518L26.5399 36.7834ZM28.9042 37.0258L28.595 36.0748L28.9042 37.0258ZM43.6433 38.8678L43.9381 37.9123L43.6433 38.8678ZM50.4806 37.0298L51.2147 37.7088L50.4806 37.0298ZM31.9681 35.4065L31.7068 34.4412L31.7058 34.4415L31.9681 35.4065ZM58.8381 28.1746L59.0993 29.1399L59.1071 29.1377L58.8381 28.1746ZM60.7557 26.5037L59.8385 26.1054H59.8385L60.7557 26.5037ZM60.6677 23.9618L59.7772 24.4167L59.7802 24.4226L60.6677 23.9618ZM52.7901 8.54195L51.8995 8.99673L51.8996 8.99689L52.7901 8.54195ZM52.5583 8.16293L53.369 7.57738L53.3686 7.5769L52.5583 8.16293ZM37.4521 1.98137L37.6832 2.95429C37.6928 2.95201 37.7024 2.94959 37.7119 2.94703L37.4521 1.98137ZM36.1832 18.1761L37.1704 18.3352L37.1709 18.3324L36.1832 18.1761ZM36.0796 18.607L35.1279 18.2997L35.1274 18.3013L36.0796 18.607ZM30.7869 35.0957L31.7383 35.4038L31.7391 35.4013L30.7869 35.0957ZM7.97095 25.9211C6.73182 27.6879 6.27822 29.8883 6.71759 32.0011L8.6757 31.5939C8.34874 30.0217 8.68629 28.3842 9.60838 27.0695L7.97095 25.9211ZM6.71759 32.0011C7.15697 34.1139 8.45023 35.9511 10.291 37.0774L11.3348 35.3714C9.96503 34.5333 9.00266 33.1661 8.6757 31.5939L6.71759 32.0011ZM10.3319 37.1011C12.2222 38.1381 14.4583 38.3432 16.5056 37.6673L15.8786 35.7681C14.3582 36.2701 12.6976 36.1178 11.2939 35.3477L10.3319 37.1011ZM16.5056 37.6673C18.553 36.9914 20.2275 35.4952 21.1287 33.5366L19.3118 32.7006C18.6425 34.1551 17.399 35.2662 15.8786 35.7681L16.5056 37.6673ZM9.28009 25.6301L2.95674 21.9654L1.95387 23.6958L8.27722 27.3605L9.28009 25.6301ZM2.96387 21.9695C2.45538 21.6692 2.1093 21.1558 2.02171 20.5717L0.0438331 20.8684C0.220735 22.0479 0.919737 23.085 1.94674 23.6916L2.96387 21.9695ZM2.02171 20.5717C1.93413 19.9877 2.11437 19.3953 2.51238 18.959L1.03485 17.6111C0.230965 18.4923 -0.133068 19.6888 0.0438331 20.8684L2.02171 20.5717ZM2.5162 18.9548L14.0995 6.11178L12.6143 4.77228L1.03103 17.6153L2.5162 18.9548ZM14.0989 6.11242C14.1639 6.04052 14.2342 5.97371 14.3094 5.91259L13.0479 4.36068C12.8932 4.48638 12.7485 4.62377 12.6149 4.77164L14.0989 6.11242ZM14.31 5.91215C17.2729 3.50017 19.77 2.31705 22.1065 2.05635C24.4268 1.79745 26.7359 2.43221 29.3635 3.95416L30.3659 2.22352C27.5045 0.566068 24.7636 -0.252538 21.8847 0.0686826C19.022 0.388097 16.1706 1.81858 13.0473 4.36112L14.31 5.91215ZM29.3692 3.95743C30.0889 4.36802 30.7793 4.82799 31.4354 5.33404L32.6568 3.75037C31.9276 3.18789 31.1602 2.67662 30.3602 2.22025L29.3692 3.95743ZM8.28628 27.3606L19.7196 33.9839L20.7221 32.2533L9.28881 25.63L8.28628 27.3606ZM19.7151 33.9838L26.0385 37.6486L27.0414 35.9182L20.718 32.2534L19.7151 33.9838ZM26.0441 37.6518C27.0076 38.2019 28.1584 38.3199 29.2135 37.9768L28.595 36.0748C28.0759 36.2436 27.5098 36.1856 27.0358 35.9149L26.0441 37.6518ZM29.2135 37.9768C30.2686 37.6337 31.1299 36.8613 31.5855 35.8497L29.7619 35.0284C29.5378 35.5261 29.114 35.906 28.595 36.0748L29.2135 37.9768ZM38.0404 33.6451C38.4741 36.5541 40.538 38.9565 43.3486 39.8234L43.9381 37.9123C41.8628 37.2721 40.3388 35.4982 40.0186 33.3502L38.0404 33.6451ZM43.3486 39.8234C46.1591 40.6903 49.2177 39.8681 51.2147 37.7088L49.7464 36.3509C48.2718 37.9453 46.0133 38.5524 43.9381 37.9123L43.3486 39.8234ZM51.2147 37.7088C53.2117 35.5495 53.793 32.4361 52.7095 29.7017L50.8502 30.4385C51.6502 32.4575 51.221 34.7565 49.7464 36.3509L51.2147 37.7088ZM38.7583 32.5325L31.7068 34.4412L32.2294 36.3717L39.2808 34.463L38.7583 32.5325ZM31.7058 34.4415C31.4275 34.5171 31.1356 34.5275 30.8527 34.4717L30.4658 36.4339C31.051 36.5493 31.655 36.5279 32.2305 36.3714L31.7058 34.4415ZM39.2891 34.477L52.0394 31.0495L51.5202 29.1181L38.7699 32.5456L39.2891 34.477ZM52.0479 31.0486L59.0993 29.1399L58.5768 27.2093L51.5254 29.1181L52.0479 31.0486ZM59.1071 29.1377C60.2554 28.8169 61.198 27.9957 61.6729 26.9021L59.8385 26.1054C59.6035 26.6464 59.1371 27.0528 58.569 27.2115L59.1071 29.1377ZM61.6729 26.9021C62.1479 25.8085 62.1046 24.5591 61.5552 23.5009L59.7802 24.4226C60.0521 24.9461 60.0735 25.5643 59.8385 26.1054L61.6729 26.9021ZM61.5582 23.5068L53.6806 8.087L51.8996 8.99689L59.7772 24.4167L61.5582 23.5068ZM53.6807 8.08716C53.59 7.90951 53.4858 7.73908 53.369 7.57738L51.7477 8.74847C51.8046 8.82722 51.8553 8.91022 51.8995 8.99673L53.6807 8.08716ZM53.3686 7.5769C51.0069 4.3114 48.622 2.18926 45.94 1.13702C43.2425 0.0786902 40.3842 0.156951 37.1923 1.0157L37.7119 2.94703C40.6416 2.15882 43.035 2.14573 45.2095 2.99886C47.3996 3.85807 49.5069 5.65019 51.748 8.74895L53.3686 7.5769ZM37.221 1.00844C35.1233 1.50674 33.1535 2.4395 31.4387 3.74647L32.6511 5.33711C34.1434 4.1997 35.8577 3.38795 37.6832 2.95429L37.221 1.00844ZM31.4155 5.331C33.2024 6.72404 34.3692 8.31116 34.9887 10.2944C35.6151 12.2999 35.7065 14.7901 35.1955 18.0198L37.1709 18.3324C37.7096 14.928 37.6483 12.101 36.8977 9.69805C36.1402 7.27276 34.7057 5.36009 32.6451 3.75369L31.4155 5.331ZM35.1959 18.0171C35.1805 18.1129 35.1577 18.2074 35.1279 18.2997L37.0312 18.9142C37.0923 18.725 37.1388 18.5315 37.1704 18.3352L35.1959 18.0171ZM35.1274 18.3013L29.8348 34.79L31.7391 35.4013L37.0317 18.9126L35.1274 18.3013ZM29.8356 34.7876C29.8107 34.8645 29.7812 34.9399 29.7475 35.0133L31.5646 35.8488C31.6312 35.704 31.6892 35.5554 31.7383 35.4038L29.8356 34.7876Z" fill="#CE3591"/>
</svg>
