<svg width="26" height="26" viewBox="0 0 26 26" fill="none" xmlns="http://www.w3.org/2000/svg">
<path d="M5.49997 25C3.01471 25 1 22.9853 1 20.5V5.49997C1 3.01471 3.01471 1 5.49997 1H20.4999C22.9852 1 24.9999 3.01471 24.9999 5.49997L24.9999 20.5C24.9999 22.9853 22.9851 25 20.4999 25H5.49997Z" fill="white"/>
<path d="M12.168 18.3033L6.99996 13M6.99996 13L12.168 7.69669M6.99996 13H18.3552M24.9999 5.49997L24.9999 20.5C24.9999 22.9853 22.9852 25 20.4999 25H5.49997C3.01471 25 1 22.9853 1 20.5V5.49997C1 3.01471 3.01471 1 5.49997 1H20.4999C22.9852 1 24.9999 3.01471 24.9999 5.49997Z" stroke="#1F2C4A" stroke-width="1.5" stroke-linecap="round" stroke-linejoin="round"/>
</svg>
