<svg width="18" height="18" viewBox="0 0 18 18" fill="none" xmlns="http://www.w3.org/2000/svg">
<path id="Settings" d="M6.63616 2.80437L7.59335 1.42882C7.78029 1.16017 8.08688 1 8.41418 1H9.6497C9.97578 1 10.2814 1.15898 10.4686 1.426L11.4151 2.77626M6.63616 2.80437C6.35868 3.20025 5.89745 3.39423 5.40789 3.35965M6.63616 2.80437C6.35733 3.1993 5.89745 3.39584 5.40789 3.35965M5.40789 3.35965L3.71081 3.2531C3.38996 3.23296 3.07899 3.3683 2.87507 3.61682L2.09702 4.56509C1.88082 4.82858 1.81371 5.18405 1.91898 5.50823L2.40987 7.02003M2.40987 7.02003C2.48101 7.2507 2.49011 7.49782 2.4392 7.7312M2.40987 7.02003C2.48202 7.25029 2.49078 7.49691 2.43886 7.73359M2.4392 7.7312C2.38761 7.96183 2.27702 8.1796 2.11283 8.35594M2.4392 7.7312L2.43886 7.73359M2.11283 8.35594L0.997093 9.55593C0.768694 9.80158 0.678664 10.1454 0.757348 10.4714L1.02909 11.5975C1.10751 11.9225 1.34316 12.1868 1.65706 12.3019L3.19005 12.8637C3.41797 12.9519 3.61488 13.0953 3.7639 13.2759M2.11283 8.35594C2.27804 8.18104 2.38761 7.96397 2.43886 7.73359M3.7639 13.2759C3.91191 13.457 4.01272 13.6756 4.05183 13.9123M3.7639 13.2759C3.91326 13.457 4.01441 13.675 4.05183 13.9123M3.7639 13.2759L3.76154 13.2733C3.75176 13.2615 3.74131 13.2491 3.7312 13.2376M4.05183 13.9123L4.31293 15.5161C4.3662 15.8433 4.57815 16.1228 4.87883 16.2624L5.99234 16.7794C6.28341 16.9146 6.62164 16.9018 6.9017 16.7451L8.34354 15.9385M8.34354 15.9385C8.55562 15.8193 8.7923 15.7596 9.02899 15.7593M8.34354 15.9385C8.4275 15.8907 8.51549 15.8526 8.60585 15.8239C8.74308 15.7805 8.88603 15.759 9.02899 15.7593M9.02899 15.7593C9.15205 15.7596 9.27511 15.7758 9.39514 15.808C9.50674 15.8379 9.61531 15.8815 9.71814 15.9385M9.02899 15.7593C9.26669 15.759 9.50472 15.8187 9.71814 15.9385M9.71814 15.9385L11.2314 16.7576C11.5127 16.9099 11.8498 16.9185 12.1384 16.7806L13.2468 16.2512C13.5464 16.1081 13.7555 15.8256 13.8048 15.4973L14.0382 13.9424M14.0382 13.9424C14.0756 13.7044 14.1751 13.4841 14.3227 13.3014M14.0382 13.9424C14.0742 13.7038 14.1744 13.4839 14.3227 13.3014M14.3227 13.3014C14.4694 13.1206 14.6639 12.9765 14.8905 12.8875M14.3227 13.3014C14.4691 13.1199 14.6629 12.9754 14.8905 12.8875M14.8905 12.8875L16.4424 12.2792C16.7504 12.1585 16.9788 11.8934 17.0524 11.5709L17.314 10.4259C17.3874 10.1043 17.2975 9.76715 17.0737 9.52479L15.9492 8.30717M15.9492 8.30717C15.782 8.13021 15.6653 7.91884 15.6087 7.69419M15.9492 8.30717C15.8706 8.22453 15.8032 8.13417 15.7482 8.03838C15.6855 7.9296 15.6387 7.81381 15.6087 7.69419M15.6087 7.69419C15.553 7.47115 15.5564 7.23479 15.6269 7.00602L16.112 5.45103C16.2124 5.12923 16.1439 4.7785 15.9298 4.51812L15.1743 3.59917C14.968 3.34828 14.6527 3.2132 14.3288 3.23693L12.6535 3.35965M12.6535 3.35965C12.41 3.37683 12.1706 3.33046 11.9576 3.23071M12.6535 3.35965C12.4097 3.37782 12.1706 3.33108 11.9576 3.23071M11.9576 3.23071C11.7431 3.12968 11.555 2.97432 11.4151 2.77626M11.9576 3.23071C11.7428 3.13005 11.5543 2.9751 11.4151 2.77626M2.43886 7.73359L2.43954 7.73009M11.7401 9.00849C11.7401 10.5005 10.5034 11.7099 8.97808 11.7099C7.45277 11.7099 6.21606 10.5005 6.21606 9.00849C6.21606 7.51653 7.45277 6.30709 8.97808 6.30709C10.5034 6.30709 11.7401 7.51653 11.7401 9.00849Z" stroke="#1F2C4A"/>
</svg>
