<svg width="35" height="24" viewBox="0 0 35 24" fill="none" xmlns="http://www.w3.org/2000/svg">
<path id="YouTube" d="M33.7839 5.17856C33.7839 5.17856 33.4507 2.82588 32.4243 1.79284C31.1247 0.433213 29.6718 0.426548 29.0053 0.34657C24.2333 -1.90682e-07 17.0686 0 17.0686 0H17.0553C17.0553 0 9.89058 -1.90682e-07 5.11858 0.34657C4.4521 0.426548 2.99917 0.433213 1.69953 1.79284C0.673146 2.82588 0.34657 5.17856 0.34657 5.17856C0.34657 5.17856 0 7.94446 0 10.7037V13.2896C0 16.0489 0.339906 18.8148 0.339906 18.8148C0.339906 18.8148 0.673146 21.1675 1.69286 22.2005C2.9925 23.5601 4.69869 23.5135 5.45848 23.6601C8.19106 23.92 17.0619 24 17.0619 24C17.0619 24 24.2333 23.9867 29.0053 23.6468C29.6718 23.5668 31.1247 23.5601 32.4243 22.2005C33.4507 21.1675 33.7839 18.8148 33.7839 18.8148C33.7839 18.8148 34.1239 16.0555 34.1239 13.2896V10.7037C34.1239 7.94446 33.7839 5.17856 33.7839 5.17856ZM13.5362 16.4288V6.8381L22.7537 11.6501L13.5362 16.4288Z" fill="white"/>
</svg>
