<svg width="22" height="22" viewBox="0 0 22 22" fill="none" xmlns="http://www.w3.org/2000/svg">
<g id="more" clip-path="url(#clip0_327_2227)">
<path id="Vector" d="M10.9998 7.33317C12.0082 7.33317 12.8332 6.50817 12.8332 5.49984C12.8332 4.4915 12.0082 3.6665 10.9998 3.6665C9.9915 3.6665 9.1665 4.4915 9.1665 5.49984C9.1665 6.50817 9.9915 7.33317 10.9998 7.33317ZM10.9998 9.1665C9.9915 9.1665 9.1665 9.9915 9.1665 10.9998C9.1665 12.0082 9.9915 12.8332 10.9998 12.8332C12.0082 12.8332 12.8332 12.0082 12.8332 10.9998C12.8332 9.9915 12.0082 9.1665 10.9998 9.1665ZM10.9998 14.6665C9.9915 14.6665 9.1665 15.4915 9.1665 16.4998C9.1665 17.5082 9.9915 18.3332 10.9998 18.3332C12.0082 18.3332 12.8332 17.5082 12.8332 16.4998C12.8332 15.4915 12.0082 14.6665 10.9998 14.6665Z" fill="black"/>
</g>
<defs>
<clipPath id="clip0_327_2227">
<rect width="22" height="22" fill="white"/>
</clipPath>
</defs>
</svg>
