<svg width="1200" height="1828" viewBox="0 0 1200 1828" fill="none" xmlns="http://www.w3.org/2000/svg">
<path d="M414.191 407.947H403.243C471.349 380.736 519.606 314.118 519.606 236.419V0H184.655C82.8276 0 0 82.8276 0 184.655V729.345C0 831.172 82.8276 914 184.655 914H598.846V592.601C598.846 490.774 516.018 407.947 414.191 407.947ZM414.191 420.569C509.056 420.569 586.25 497.736 586.25 592.628V897.153L585.905 897.046C499.384 869.065 425.564 796.575 370.931 736.546C344.809 707.848 324.827 672.267 305.508 637.828C282.204 596.321 258.129 553.433 222.813 521.253C168.047 471.376 108.417 445.866 26.1477 421.1H334.951C339.442 421.1 343.853 420.888 348.264 420.569H414.191ZM347.839 407.947H22.3212C38.2649 365.297 51.073 336.439 86.3618 302.665C111.925 278.191 147.426 260.175 198.048 246.012C213.167 241.786 228.739 238.04 243.912 234.426C270.273 228.101 297.563 221.564 323.631 212.105C370.984 194.912 412.756 168.312 444.458 135.229C475.176 103.182 496.992 64.014 506.984 23.5967V236.445C506.984 326.979 436.672 401.356 347.812 407.973L347.839 407.947ZM184.655 12.6221H496.912C488.489 53.81 466.885 94.1742 435.582 126.832C405.183 158.56 365.005 184.097 319.406 200.652C294.002 209.899 267.057 216.33 240.936 222.601C225.736 226.241 210.032 230.015 194.699 234.293C161.563 243.567 113.413 259.829 77.8319 293.896C42.0117 328.201 28.3532 357.272 12.569 398.991V184.655C12.6221 89.7897 89.7897 12.6221 184.655 12.6221ZM12.6221 729.345V429.763C98.3993 455.007 159.304 479.906 214.523 530.182C248.377 561.033 271.973 603.071 294.826 643.727C314.49 678.75 334.845 714.969 361.869 744.678C413.421 801.304 481.846 868.8 562.627 901.404H184.655C89.7897 901.404 12.5955 824.237 12.5955 729.345H12.6221Z" fill="#E1E1E1" fill-opacity="0.2"/>
<path d="M1015.19 1321.95H1004.24C1072.35 1294.74 1120.61 1228.12 1120.61 1150.42V914H785.655C683.828 914 601 996.828 601 1098.65V1643.35C601 1745.17 683.828 1828 785.655 1828H1199.85V1506.6C1199.85 1404.77 1117.02 1321.95 1015.19 1321.95ZM1015.19 1334.57C1110.06 1334.57 1187.25 1411.74 1187.25 1506.63V1811.15L1186.9 1811.05C1100.38 1783.07 1026.56 1710.57 971.931 1650.55C945.809 1621.85 925.827 1586.27 906.508 1551.83C883.204 1510.32 859.129 1467.43 823.813 1435.25C769.047 1385.38 709.417 1359.87 627.148 1335.1H935.951C940.442 1335.1 944.853 1334.89 949.264 1334.57H1015.19ZM948.839 1321.95H623.321C639.265 1279.3 652.073 1250.44 687.362 1216.66C712.925 1192.19 748.426 1174.17 799.048 1160.01C814.167 1155.79 829.739 1152.04 844.912 1148.43C871.273 1142.1 898.563 1135.56 924.631 1126.1C971.984 1108.91 1013.76 1082.31 1045.46 1049.23C1076.18 1017.18 1097.99 978.014 1107.98 937.597V1150.45C1107.98 1240.98 1037.67 1315.36 948.812 1321.97L948.839 1321.95ZM785.655 926.622H1097.91C1089.49 967.81 1067.89 1008.17 1036.58 1040.83C1006.18 1072.56 966.005 1098.1 920.406 1114.65C895.002 1123.9 868.057 1130.33 841.936 1136.6C826.736 1140.24 811.032 1144.01 795.699 1148.29C762.563 1157.57 714.413 1173.83 678.832 1207.9C643.012 1242.2 629.353 1271.27 613.569 1312.99V1098.65C613.622 1003.79 690.79 926.622 785.655 926.622ZM613.622 1643.35V1343.76C699.399 1369.01 760.304 1393.91 815.523 1444.18C849.377 1475.03 872.973 1517.07 895.826 1557.73C915.49 1592.75 935.845 1628.97 962.869 1658.68C1014.42 1715.3 1082.85 1782.8 1163.63 1815.4H785.655C690.79 1815.4 613.596 1738.24 613.596 1643.35H613.622Z" fill="#E1E1E1" fill-opacity="0.2"/>
</svg>
