<svg width="180" height="40" viewBox="0 0 180 40" fill="none" xmlns="http://www.w3.org/2000/svg">
<path d="M88.7183 0.212828C88.5239 0.420179 88.5117 1.26178 88.5117 9.88518C88.5117 17.4962 88.5482 19.4478 88.6818 19.9478C89.0706 21.4359 90.0304 22.5702 91.294 23.0581C91.8529 23.2777 92.3146 23.3387 93.9306 23.3875C95.1698 23.424 96.1904 23.3875 96.7129 23.3021C98.2073 23.0337 99.2643 22.3019 99.884 21.07C100.528 19.8015 100.54 19.5819 100.54 9.65344C100.54 0.639729 100.54 0.481165 100.297 0.237221C100.005 -0.0555115 99.8354 -0.0677071 99.4709 0.188433L99.2036 0.371389V9.73882C99.2036 17.9597 99.1793 19.1794 99.0092 19.7527C98.6568 20.9602 97.9522 21.6798 96.8587 21.9604C96.5063 22.0458 95.51 22.0824 94.1371 22.0458C91.695 21.997 91.3062 21.8872 90.5893 21.009C89.7632 19.9966 89.7996 20.4723 89.7267 9.8364C89.6781 1.46914 89.6417 0.212828 89.4837 0.11525C89.2043 -0.0677071 88.937 -0.0311165 88.7183 0.212828Z" fill="#1F2C4A"/>
<path d="M6.51232 0.249451C3.64495 0.725143 1.04489 3.20117 0.218697 6.21387C0.0121498 6.9579 0 7.88488 0 19.8747C0 30.1203 0.0364495 32.8891 0.157948 33.4746C0.255147 33.8771 0.571043 34.7187 0.874789 35.3529C1.61593 36.902 2.84306 38.1583 4.3375 38.8901C6.15997 39.7927 5.68613 39.7561 16.378 39.7561H25.9521L25.9156 32.1573C25.867 23.7046 25.8913 24.0217 24.9922 22.1922C24.6642 21.5213 24.2875 21.0212 23.5707 20.2894C22.1127 18.8136 20.837 18.1793 18.7472 17.8988L17.678 17.7524L18.3463 17.3987C19.1482 16.9596 20.4603 15.7887 20.9706 15.0446C21.1772 14.7397 21.4931 14.1786 21.6996 13.7761C22.38 12.3856 22.4165 12.0563 22.4165 5.81136V0.115284L14.7985 0.12748C10.5947 0.139679 6.87681 0.188465 6.51232 0.249451ZM21.3837 1.11545C21.2258 1.87168 20.5575 3.32314 19.9622 4.21354C18.7715 6.00652 16.4509 7.7995 14.2396 8.65331C13.7172 8.86066 12.6723 9.18998 11.9312 9.38514C11.1779 9.59249 9.82923 9.94621 8.93014 10.178C6.08707 10.9342 4.54404 11.727 3.11036 13.1785C2.10192 14.1908 1.60378 14.947 0.971988 16.4107L0.546743 17.3743V12.3734C0.546743 6.75055 0.595343 6.32365 1.36078 4.76241C2.23557 2.96942 4.216 1.37159 6.15997 0.895901C6.64597 0.786129 8.62639 0.737339 14.1303 0.737339L21.4688 0.725143L21.3837 1.11545ZM21.9062 7.3726L21.8697 11.7636L21.5295 12.7394C20.6669 15.191 18.7229 16.9962 16.2808 17.6182C15.2967 17.8744 1.03274 17.8988 1.03274 17.6426C1.03274 17.5572 1.32433 16.8864 1.68883 16.1546C2.96456 13.5688 4.64124 12.1295 7.49646 11.1415C7.98245 10.9708 9.47688 10.5683 10.8134 10.2267C14.9079 9.20218 16.7911 8.28739 18.808 6.34804C20.1444 5.06734 21.1772 3.5061 21.651 2.04244L21.8697 1.3472L21.9062 2.16441C21.9305 2.6157 21.9305 4.95756 21.9062 7.3726ZM20.351 18.8014C22.5015 19.5942 24.1539 21.253 24.9436 23.4241L25.2717 24.3267L25.3081 31.6694C25.3324 37.8411 25.3203 39.0243 25.1745 39.0243C24.7614 39.0243 21.9912 37.4752 20.7762 36.5726C19.1482 35.3407 15.9163 32.1207 15.0537 30.8522C14.7135 30.3521 13.8994 28.9982 13.2433 27.8639C11.6882 25.1561 10.9956 24.1559 9.95073 23.0948C8.15255 21.3018 6.22072 20.1674 2.79447 18.9477L1.33648 18.4232L10.3881 18.4476L19.4398 18.472L20.351 18.8014ZM3.00101 19.582C6.62167 20.8505 9.29463 22.7166 10.947 25.1195C11.2872 25.6196 12.1012 26.9613 12.7573 28.1078C14.3733 30.9253 15.0415 31.8401 16.7546 33.6331C19.0996 36.0604 21.0921 37.6338 23.2548 38.7559L24.2632 39.2804L15.4182 39.2438C6.63382 39.2072 6.54877 39.2072 5.77118 38.9389C3.46271 38.1461 1.66453 36.3409 0.874789 34.0234C0.619642 33.2428 0.607492 33.0964 0.571043 26.0099L0.534593 18.7892L1.16639 18.9721C1.50658 19.0697 2.33277 19.3502 3.00101 19.582Z" fill="#1F2C4A"/>
<path d="M42.6943 0.420181C41.3699 0.847082 40.3615 1.90824 39.9119 3.3719C39.6811 4.14032 39.6689 4.49404 39.6689 13.5931C39.6689 21.5579 39.6932 23.0337 39.839 23.1557C39.9605 23.2655 41.1391 23.2899 44.2494 23.2655L48.4776 23.2289L49.1701 22.8874C50.0328 22.4605 50.859 21.5579 51.2356 20.6309C51.5029 19.9601 51.515 19.8015 51.515 16.5814C51.515 13.337 51.5029 13.2028 51.2235 12.5076C51.0412 12.0441 50.701 11.544 50.2879 11.1171L49.644 10.4463L50.1907 9.90958C50.5066 9.60465 50.9076 9.01919 51.1263 8.5557L51.515 7.73849V5.66497C51.515 3.60364 51.515 3.59145 51.1384 2.79863C50.6281 1.70089 50.1178 1.16421 49.1701 0.700716L48.3682 0.29821L45.8046 0.273815C43.8485 0.249422 43.1195 0.286013 42.6943 0.420181ZM47.9308 1.59111C48.7813 1.77407 49.486 2.34734 49.9234 3.20114C50.2393 3.82319 50.2879 4.06714 50.3365 5.21367C50.4337 7.59212 49.9477 8.76305 48.5991 9.44609L47.8701 9.81201L44.3709 9.8486L40.8596 9.89739L40.9082 6.97006L40.9447 4.05494L41.3699 3.21334C41.7101 2.55469 41.9167 2.31074 42.3784 2.01801C42.6943 1.82286 43.156 1.6277 43.4111 1.57891C44.1279 1.43255 47.2505 1.44474 47.9308 1.59111ZM48.3075 11.2757C49 11.5196 49.6683 12.1905 50.0206 12.9711C50.2758 13.5443 50.3001 13.7883 50.3365 16.3009C50.373 18.5452 50.3487 19.1306 50.1786 19.7039C49.8991 20.6797 49.4739 21.253 48.7449 21.6555L48.1131 22.0092L44.5046 22.0458L40.8839 22.0824V16.5936V11.0927H44.3345C47.129 11.0927 47.8822 11.1293 48.3075 11.2757Z" fill="#1F2C4A"/>
<path d="M58.9872 0.432373C57.2133 0.908064 56.1077 2.32294 55.8282 4.45744C55.7432 5.0673 55.7067 8.61668 55.731 14.2396C55.7675 22.8142 55.7796 23.0703 55.9983 23.2411C56.1927 23.3875 57.1769 23.4118 61.7209 23.4118C66.4836 23.4118 67.2248 23.3875 67.4678 23.2167C67.7958 22.9971 67.8201 22.5458 67.5164 22.2775C67.3098 22.0946 66.7631 22.0702 62.1704 22.0702H57.0432V16.5814V11.0927H60.0564C63.2761 11.0927 63.3611 11.0805 63.3611 10.4828C63.3611 9.88518 63.2761 9.87298 60.0564 9.87298H57.0432V7.15302C57.0432 4.12812 57.1283 3.59144 57.7722 2.71325C57.9909 2.40832 58.3918 2.07899 58.7685 1.89603L59.4003 1.57891H63.106C67.1883 1.57891 67.3949 1.54232 67.4678 0.908064C67.5528 0.249416 67.4435 0.237219 63.3733 0.249416C60.5059 0.249416 59.4975 0.298204 58.9872 0.432373Z" fill="#1F2C4A"/>
<path d="M74.9886 0.371387C73.8343 0.639725 72.7773 1.48133 72.2305 2.54248C71.623 3.75 71.623 3.78659 71.623 13.7395V23.0459L71.9268 23.2411C72.2062 23.424 72.2548 23.424 72.5343 23.2411L72.838 23.0459V18.411V13.7761H77.5765H82.3149V18.35C82.3149 22.7654 82.3271 22.9362 82.5579 23.1679C82.8617 23.4728 83.1047 23.4728 83.4084 23.1679C83.6635 22.9118 83.6635 22.8386 83.6271 13.4346C83.5906 3.96955 83.5906 3.95736 83.3112 3.22552C82.7645 1.73747 81.756 0.798288 80.3102 0.420176C79.5083 0.212824 75.8026 0.176231 74.9886 0.371387ZM80.5775 1.87164C80.9906 2.06679 81.3429 2.34733 81.5859 2.68885C82.2663 3.64023 82.3149 4.01834 82.3149 8.43372V12.4344H77.5765H72.838V8.73865C72.838 4.00614 72.9595 3.29871 73.968 2.33513C74.6484 1.67649 75.0615 1.5911 77.6372 1.5911C79.8242 1.57891 79.9821 1.5911 80.5775 1.87164Z" fill="#1F2C4A"/>
<path d="M104.149 0.45677C103.894 0.737305 103.881 1.01784 104.137 1.26178C104.295 1.43254 104.756 1.45694 107.235 1.45694H110.139V12.1417C110.139 19.2648 110.175 22.8996 110.26 23.0581C110.406 23.3265 111.013 23.3753 111.22 23.1313C111.317 23.0093 111.366 19.9113 111.378 12.2392L111.414 1.51792L114.355 1.48133L117.307 1.45694L117.501 1.15201C117.684 0.871473 117.684 0.822685 117.501 0.54215L117.307 0.237221H110.819C104.695 0.237221 104.331 0.249418 104.149 0.45677Z" fill="#1F2C4A"/>
<path d="M119.566 0.505556C119.457 0.651922 119.372 0.822683 119.372 0.871471C119.372 0.908064 120.636 3.67682 122.167 7.00665L124.961 13.0564V18.0451V23.0459L125.265 23.2411C125.629 23.485 125.969 23.3753 126.152 22.9727C126.261 22.7654 126.297 21.2042 126.297 17.7768V12.8857L129.043 6.89687C132.02 0.395782 132.044 0.346992 131.206 0.261614C130.999 0.237219 130.769 0.298204 130.696 0.383585C130.623 0.481163 129.444 2.98158 128.071 5.96989L125.581 11.3854L125.289 10.7146C123.843 7.47014 120.636 0.615332 120.49 0.444571C120.235 0.151838 119.785 0.188431 119.566 0.505556Z" fill="#1F2C4A"/>
<path d="M137.634 0.45677C136.516 0.859278 135.823 1.54232 135.204 2.85961L134.864 3.59144L134.827 11.4586C134.791 19.0087 134.803 19.3502 135.034 20.1186C135.459 21.5213 136.188 22.3751 137.451 22.9606C137.986 23.2167 138.205 23.2289 140.817 23.2289C143.429 23.2289 143.648 23.2167 144.182 22.9606C145.422 22.3873 146.394 21.1188 146.698 19.6551C146.77 19.3014 146.831 17.9719 146.831 16.7034C146.831 14.7762 146.795 14.3737 146.637 14.2152C146.479 14.0444 146.054 14.02 143.867 14.02C141.449 14.02 141.267 14.0322 141.06 14.264C140.781 14.5811 140.902 15.0934 141.315 15.2397C141.485 15.3129 142.53 15.3617 143.636 15.3617H145.64L145.592 17.4108C145.555 19.4478 145.543 19.4722 145.142 20.2894C144.413 21.7896 143.49 22.1311 140.331 22.0458C138.423 22.0092 138.363 21.997 137.719 21.6311C136.929 21.192 136.346 20.3382 136.139 19.3258C136.054 18.8989 136.018 16.2643 136.042 11.3245L136.079 3.95736L136.419 3.26212C137.136 1.81066 137.937 1.45694 140.598 1.45694C142.858 1.45694 143.296 1.56671 144.11 2.35953C144.766 3.00598 145.13 3.83539 145.13 4.68919C145.13 5.11609 145.531 5.72595 145.811 5.72595C145.908 5.72595 146.102 5.60398 146.236 5.46981C146.467 5.23806 146.491 5.11609 146.418 4.51843C146.199 2.64006 145.349 1.29838 143.915 0.615334C143.271 0.310404 143.162 0.298208 140.756 0.261616C138.606 0.237221 138.18 0.261616 137.634 0.45677Z" fill="#1F2C4A"/>
<path d="M149.796 0.542152C149.638 0.786097 149.625 0.920265 149.71 1.12762C149.783 1.27398 151.047 4.01835 152.529 7.2262L155.214 13.0443V18.0451V23.0459L155.518 23.2411C155.883 23.485 156.284 23.3631 156.442 22.9606C156.502 22.7898 156.551 20.5455 156.551 17.789V12.9101L159.285 6.94567C160.791 3.66463 162.018 0.883675 162.018 0.761702C162.018 0.627533 161.958 0.468969 161.872 0.383591C161.702 0.21283 161.144 0.188435 160.973 0.359196C160.913 0.420181 159.734 2.9206 158.373 5.89671C157 8.88502 155.846 11.2879 155.81 11.2391C155.773 11.1903 154.655 8.78744 153.331 5.90891C152.019 3.01818 150.853 0.566547 150.743 0.444576C150.476 0.139647 150.026 0.188435 149.796 0.542152Z" fill="#1F2C4A"/>
<path d="M165.371 0.432373C165.201 0.603132 165.177 1.79846 165.177 11.8245V23.0459L165.481 23.2411C165.76 23.424 165.809 23.424 166.088 23.2411L166.392 23.0459V14.1176C166.392 9.21434 166.416 5.22586 166.452 5.25026C166.477 5.28685 167.74 9.28752 169.247 14.1542C171.057 19.9722 172.078 23.0703 172.236 23.2289C172.455 23.4484 172.491 23.4606 172.807 23.2899C173.111 23.1191 173.317 22.5336 175.48 15.5447C176.78 11.3854 178.031 7.34817 178.274 6.57975L178.724 5.17707L178.76 14.1054L178.785 23.0459L179.088 23.2411C179.368 23.424 179.416 23.424 179.696 23.2411L180 23.0459V11.8245C180 1.79846 179.975 0.603132 179.805 0.432373C179.574 0.200626 179.271 0.188429 178.991 0.383583C178.87 0.481161 177.655 4.2013 175.723 10.4463C174.034 15.8984 172.625 20.3626 172.588 20.3626C172.54 20.3626 170.049 12.4344 166.72 1.72527C166.525 1.10322 166.295 0.517754 166.185 0.420176C165.954 0.188429 165.602 0.188429 165.371 0.432373Z" fill="#1F2C4A"/>
<path d="M48.4896 35.0002C47.627 35.2685 47.3232 35.9027 47.3232 37.4637C47.3232 39.171 47.7485 39.8051 48.9756 39.9515C49.8869 40.0612 50.6523 39.6954 50.9682 39.0002C51.2962 38.2685 51.2962 36.61 50.9682 35.8783C50.6037 35.0612 49.5345 34.6832 48.4896 35.0002ZM49.8018 35.61C49.9719 35.671 50.1906 35.8905 50.3 36.0856C50.543 36.5734 50.5551 38.2929 50.3 38.7685C49.9476 39.4637 48.7934 39.5734 48.3195 38.9637C48.0279 38.5978 47.8821 37.5368 48.0036 36.7441C48.1494 35.7319 48.8906 35.2563 49.8018 35.61Z" fill="#1F2C4A"/>
<path d="M67.3714 35.0123C66.2536 35.4635 66.0957 36.7927 67.1163 37.3049C67.3593 37.4269 67.8574 37.622 68.2219 37.744C69.0481 38.0123 69.3154 38.2318 69.3154 38.6586C69.3154 39.1098 69.0602 39.2927 68.3677 39.3537C67.7116 39.4025 67.2499 39.2074 67.0677 38.8049C66.9826 38.622 66.849 38.5366 66.606 38.5366C66.2779 38.5366 66.2536 38.561 66.3387 38.8659C66.448 39.3293 66.6181 39.5123 67.1892 39.7684C68.5013 40.3659 70.0444 39.7074 70.0444 38.5488C70.0444 37.8903 69.6313 37.5245 68.5256 37.183C67.505 36.8781 67.1284 36.5976 67.1284 36.1708C67.1284 35.7806 67.3957 35.5854 68.0396 35.5123C68.5499 35.4635 68.6228 35.4879 69.0116 35.9025C69.6677 36.6098 70.2509 36.2927 69.6677 35.561C69.1939 34.9513 68.149 34.7074 67.3714 35.0123Z" fill="#1F2C4A"/>
<path d="M86.2641 35.122C85.5959 35.4512 85.3529 35.9268 85.2678 37C85.122 38.9512 85.8267 40 87.2726 40C88.2081 39.9878 88.9857 39.4268 89.1801 38.622C89.2651 38.3171 89.2408 38.2927 88.8885 38.2927C88.5969 38.2927 88.4997 38.3537 88.4389 38.5854C88.196 39.5732 86.5193 39.6585 86.1305 38.7073C86.0333 38.4756 85.9604 37.9146 85.9604 37.439C85.9604 36.9634 86.0333 36.4024 86.1305 36.1707C86.5193 35.2195 88.196 35.3049 88.4389 36.2927C88.4997 36.5244 88.5969 36.5854 88.8885 36.5854C89.2408 36.5854 89.2651 36.561 89.1801 36.2439C89.0464 35.6951 88.767 35.3537 88.2324 35.1098C87.5763 34.8171 86.8716 34.8171 86.2641 35.122Z" fill="#1F2C4A"/>
<path d="M113.006 35.0002C112.556 35.1465 112.204 35.4636 112.009 35.9392C111.779 36.4636 111.791 38.4148 112.009 38.9514C112.35 39.7563 113.431 40.1709 114.476 39.8904C115.411 39.6343 116.201 38.2929 115.411 38.2929C115.181 38.2929 115.071 38.3782 114.974 38.6587C114.731 39.3904 113.589 39.6343 112.981 39.0977C112.702 38.866 112.629 38.6831 112.568 38.0977C112.459 36.866 112.593 36.1099 112.969 35.7807C113.589 35.2441 114.731 35.488 114.974 36.2197C115.071 36.5002 115.181 36.5855 115.411 36.5855C115.861 36.5855 115.824 36.0977 115.351 35.5612C114.828 34.9514 113.905 34.7319 113.006 35.0002Z" fill="#1F2C4A"/>
<path d="M147.742 35.1099C147.22 35.3416 146.953 35.7562 146.953 36.3294C146.953 36.9147 147.353 37.2684 148.386 37.6099C149.54 38.0001 149.869 38.2196 149.869 38.5977C149.869 39.4757 148.338 39.6952 147.669 38.9025C147.305 38.4757 146.831 38.4025 146.831 38.7806C146.831 39.1708 147.451 39.7318 148.046 39.8903C149.31 40.2196 150.427 39.683 150.561 38.6952C150.622 38.244 150.585 38.1342 150.282 37.8294C150.063 37.6221 149.589 37.366 149.079 37.1952C147.912 36.8172 147.682 36.6586 147.682 36.2196C147.682 35.7684 148.07 35.4879 148.702 35.4879C149.079 35.4879 149.249 35.5733 149.577 35.9269C150.209 36.5977 150.683 36.3903 150.233 35.6342C149.783 34.9025 148.69 34.6708 147.742 35.1099Z" fill="#1F2C4A"/>
<path d="M155.032 35.0488C154.315 35.3659 154.024 35.9634 154.242 36.6463C154.388 37.0976 154.801 37.378 155.761 37.6829C156.818 38.0122 157.037 38.1707 157.037 38.5976C157.037 39.1098 156.806 39.2927 156.089 39.3537C155.433 39.4024 154.971 39.2073 154.789 38.8049C154.704 38.622 154.571 38.5366 154.34 38.5366C153.951 38.5366 153.927 38.6463 154.194 39.1585C154.413 39.5976 155.19 39.9878 155.822 40C156.976 40 157.766 39.4024 157.766 38.5244C157.766 37.8659 157.389 37.5366 156.247 37.1829C155.737 37.0366 155.227 36.8049 155.093 36.6829C154.619 36.2317 154.886 35.6463 155.603 35.5244C156.174 35.439 156.721 35.6585 156.891 36.0488C157.049 36.378 157.487 36.4512 157.608 36.1463C157.644 36.0488 157.572 35.8049 157.438 35.6341C156.94 34.9512 155.846 34.6829 155.032 35.0488Z" fill="#1F2C4A"/>
<path d="M170.11 35.0002C169.235 35.2685 168.943 35.866 168.943 37.4026C168.943 39.1831 169.356 39.805 170.596 39.9514C171.07 40.0124 171.337 39.9758 171.774 39.7807C172.54 39.4392 172.831 38.9392 172.831 37.9514V37.1953H171.92C171.033 37.1953 171.009 37.2075 171.009 37.5002C171.009 37.7807 171.045 37.805 171.628 37.805H172.248L172.163 38.2563C172.054 38.9026 171.641 39.2807 170.997 39.3538C169.952 39.4758 169.454 38.6465 169.587 37.0124C169.648 36.2563 169.709 36.1221 170.037 35.8172C170.596 35.3172 171.264 35.3538 171.823 35.9148C172.26 36.3538 172.831 36.5002 172.831 36.1587C172.831 36.0611 172.661 35.7929 172.455 35.5611C171.932 34.9514 171.009 34.7319 170.11 35.0002Z" fill="#1F2C4A"/>
<path d="M39.6689 37.439V39.8781H39.9727C40.2643 39.8781 40.2643 39.8537 40.3007 38.8049L40.3372 37.7439L41.5279 37.7073L42.7064 37.6707V38.7805V39.8781H43.0709H43.4354V37.439V35H43.0709H42.7064V36.0366V37.0732H41.4914H40.2764V36.0366C40.2764 35.0122 40.2764 35 39.9727 35H39.6689V37.439Z" fill="#1F2C4A"/>
<path d="M55.0996 37.439V39.8781H56.6912C58.2707 39.8781 58.2707 39.8781 58.2343 39.5976C58.1978 39.3415 58.1371 39.3293 56.9585 39.2927L55.7071 39.2561V37.1341V35H55.4034H55.0996V37.439Z" fill="#1F2C4A"/>
<path d="M61.9033 37.439V39.8781H62.2068H62.5102V37.439V35H62.2068H61.9033V37.439Z" fill="#1F2C4A"/>
<path d="M73.3734 35.1829C73.2519 35.5 73.4585 35.6098 74.1875 35.6098H74.9043V37.7561V39.8902L75.2445 39.8537L75.5725 39.8171L75.609 37.7073L75.6333 35.6098H76.3623C77.0548 35.6098 77.0913 35.5976 77.0913 35.3049V35H75.2688C73.7865 35 73.422 35.0366 73.3734 35.1829Z" fill="#1F2C4A"/>
<path d="M80.7354 37.439V39.8902L81.0752 39.8537L81.4029 39.8171V37.439V35.061L81.0752 35.0244L80.7354 34.9878V37.439Z" fill="#1F2C4A"/>
<path d="M97.5029 37.439V39.8781H97.8674H98.2319V38.8415V37.8049H99.3862C100.54 37.8049 100.54 37.8049 100.54 37.5C100.54 37.1951 100.54 37.1951 99.3862 37.1951H98.2319V36.4024V35.6098H99.4469H100.662V35.3049V35H99.0824H97.5029V37.439Z" fill="#1F2C4A"/>
<path d="M105.704 35.2073C105.667 35.3293 105.278 36.3293 104.853 37.439C104.428 38.5488 104.039 39.5488 104.003 39.6707C103.93 39.8415 103.978 39.8781 104.282 39.8781C104.598 39.8781 104.659 39.8049 104.853 39.3293L105.06 38.7683L106.226 38.8049L107.38 38.8415L107.575 39.3537C107.733 39.8049 107.805 39.8781 108.097 39.8781C108.279 39.8781 108.437 39.8415 108.437 39.7805C108.425 39.7317 108.024 38.6463 107.538 37.3781L106.651 35.061L106.226 35.0244C105.898 35 105.776 35.0366 105.704 35.2073ZM106.736 37.061C106.931 37.6098 107.101 38.0854 107.101 38.122C107.101 38.1463 106.688 38.1707 106.177 38.1707C105.339 38.1707 105.266 38.1463 105.339 37.9512C105.388 37.8415 105.594 37.2927 105.801 36.7317C106.214 35.5854 106.19 35.5732 106.736 37.061Z" fill="#1F2C4A"/>
<path d="M119.494 37.439V39.8781H121.134H122.775V39.5732V39.2683H121.499H120.223V38.4756V37.6951L121.414 37.6585C122.495 37.622 122.592 37.5976 122.592 37.3781C122.592 37.1585 122.495 37.1341 121.414 37.0976L120.223 37.061V36.3415V35.622L121.475 35.5854C122.653 35.5488 122.714 35.5366 122.75 35.2683C122.787 35 122.787 35 121.147 35H119.494V37.439Z" fill="#1F2C4A"/>
<path d="M131.157 37.4512V39.8902L131.497 39.8537L131.825 39.8171L131.886 38.122L131.947 36.439L132.482 37.5488C133.271 39.1463 133.417 39.1463 134.195 37.561C134.486 36.9512 134.778 36.4634 134.826 36.4634C134.875 36.4634 134.924 37.2317 134.924 38.1707V39.8781H135.227H135.531V37.439V35H135.203C134.899 35 134.79 35.1342 134.146 36.4024C133.745 37.1707 133.393 37.8049 133.344 37.8049C133.308 37.8049 132.955 37.1707 132.554 36.4024C131.898 35.1342 131.789 35 131.497 35H131.157V37.4512Z" fill="#1F2C4A"/>
<path d="M140.052 37.2561C139.566 38.5 139.177 39.6098 139.177 39.7073C139.177 39.8049 139.298 39.8781 139.468 39.8781C139.687 39.8781 139.796 39.7683 139.954 39.3293L140.173 38.7805H141.315H142.469L142.7 39.3293C142.895 39.7683 142.992 39.8781 143.247 39.8781C143.417 39.8781 143.551 39.8415 143.551 39.7805C143.551 39.7317 143.15 38.6463 142.664 37.3781L141.777 35.061L141.339 35.0244L140.914 34.9878L140.052 37.2561ZM141.777 36.8537C142.02 37.4756 142.214 38.0244 142.214 38.0732C142.214 38.1341 141.801 38.1707 141.291 38.1707C140.781 38.1707 140.392 38.122 140.416 38.0732C140.44 38.0244 140.647 37.4756 140.878 36.8537C141.109 36.2317 141.303 35.7317 141.315 35.7317C141.339 35.7317 141.546 36.2439 141.777 36.8537Z" fill="#1F2C4A"/>
<path d="M162.735 35.3293C162.066 37.061 161.046 39.7927 161.046 39.8293C161.046 39.8537 161.204 39.8781 161.386 39.8781C161.678 39.8781 161.751 39.8049 161.909 39.3537L162.103 38.8415H163.294H164.484L164.667 39.3537C164.812 39.8171 164.873 39.8781 165.201 39.8781C165.505 39.8781 165.553 39.8415 165.481 39.6585C165.444 39.5488 165.116 38.6829 164.752 37.7439C163.634 34.7805 163.743 35 163.281 35C162.941 35 162.844 35.061 162.735 35.3293ZM163.767 36.939C164.01 37.561 164.205 38.0976 164.205 38.122C164.205 38.1463 163.792 38.1707 163.294 38.1707C162.795 38.1707 162.382 38.1463 162.382 38.1098C162.382 37.9878 163.269 35.7195 163.294 35.7561C163.318 35.7805 163.524 36.3049 163.767 36.939Z" fill="#1F2C4A"/>
<path d="M176.72 37.439V39.8781H178.372C180.012 39.8781 180.012 39.8781 179.976 39.5976C179.939 39.3415 179.879 39.3293 178.627 39.2927L177.315 39.2561L177.352 38.5L177.388 37.7439L178.579 37.7073C179.745 37.6707 179.757 37.6707 179.757 37.3781C179.757 37.0732 179.757 37.0732 178.542 37.0732H177.327V36.3415V35.6098H178.591C179.636 35.6098 179.867 35.5732 179.927 35.4146C179.964 35.3049 179.976 35.1707 179.927 35.1098C179.891 35.0488 179.162 35 178.287 35H176.72V37.439Z" fill="#1F2C4A"/>
</svg>
