<svg width="343" height="525" viewBox="0 0 343 525" fill="none" xmlns="http://www.w3.org/2000/svg">
<path d="M237.236 234.324H230.965C269.974 218.694 297.614 180.429 297.614 135.798V0H105.764C47.441 0 0 47.576 0 106.065V418.935C0 477.424 47.441 525 105.764 525H343V340.389C343 281.9 295.559 234.324 237.236 234.324ZM237.236 241.574C291.571 241.574 335.786 285.899 335.786 340.404V515.323L335.588 515.262C286.031 499.19 243.75 457.551 212.457 423.071C197.496 406.587 186.05 386.149 174.985 366.367C161.637 342.526 147.848 317.891 127.62 299.407C96.2519 270.758 62.098 256.105 14.9766 241.879H191.849C194.421 241.879 196.948 241.757 199.475 241.574H237.236ZM199.231 234.324H12.7849C21.9169 209.826 29.253 193.25 49.4653 173.85C64.107 159.793 84.4411 149.444 113.435 141.309C122.096 138.882 131.015 136.73 139.705 134.654C154.804 131.021 170.435 127.266 185.366 121.832C212.488 111.957 236.414 96.6784 254.571 77.6755C272.166 59.2678 284.661 36.7695 290.384 13.5539V135.814C290.384 187.816 250.112 230.538 199.216 234.339L199.231 234.324ZM105.764 7.25012H284.616C279.791 30.9084 267.417 54.0935 249.488 72.8522C232.076 91.0767 209.063 105.745 182.946 115.254C168.395 120.566 152.962 124.259 138.001 127.862C129.295 129.953 120.3 132.12 111.518 134.577C92.5382 139.904 64.9594 149.246 44.5797 168.813C24.063 188.518 16.2398 205.216 7.1991 229.18V106.065C7.22954 51.575 51.4287 7.25012 105.764 7.25012ZM7.22954 418.935V246.855C56.36 261.355 91.2445 275.657 122.872 304.535C142.262 322.256 155.778 346.403 168.867 369.756C180.13 389.873 191.788 410.677 207.267 427.742C236.794 460.268 275.986 499.037 322.255 517.765H105.764C51.4287 517.765 7.21432 473.44 7.21432 418.935H7.22954Z" fill="#E1E1E1" fill-opacity="0.2"/>
</svg>
