<svg width="258" height="58" viewBox="0 0 258 58" fill="none" xmlns="http://www.w3.org/2000/svg">
<path d="M127.163 0.308681C126.885 0.609341 126.867 1.82967 126.867 14.3336C126.867 25.3696 126.919 28.1993 127.111 28.9245C127.668 31.0821 129.044 32.7269 130.855 33.4344C131.656 33.7527 132.318 33.8411 134.634 33.9119C136.41 33.9649 137.873 33.9119 138.622 33.7881C140.764 33.399 142.279 32.3378 143.167 30.5516C144.09 28.7122 144.108 28.3939 144.108 13.9976C144.108 0.927689 144.108 0.697773 143.76 0.344055C143.342 -0.08041 143.098 -0.0980949 142.575 0.273308L142.192 0.538597V14.1214C142.192 26.0417 142.157 27.8103 141.914 28.6415C141.409 30.3924 140.398 31.4359 138.831 31.8426C138.326 31.9664 136.898 32.0195 134.93 31.9664C131.43 31.8957 130.873 31.7365 129.845 30.4631C128.661 28.9952 128.713 29.685 128.609 14.2629C128.539 2.13033 128.487 0.308681 128.26 0.167194C127.86 -0.0980949 127.477 -0.0450363 127.163 0.308681Z" fill="white"/>
<path d="M9.33432 0.361797C5.22443 1.05155 1.49767 4.64178 0.313466 9.0102C0.0174148 10.089 0 11.4332 0 28.8184C0 43.6746 0.0522443 47.6893 0.226392 48.5382C0.36571 49.1218 0.818495 50.3422 1.25386 51.2618C2.31617 53.5079 4.07506 55.3296 6.21708 56.3907C8.82929 57.6995 8.15012 57.6464 23.4751 57.6464H37.198L37.1457 46.6281C37.0761 34.3718 37.1109 34.8316 35.8222 32.1787C35.352 31.206 34.8121 30.4809 33.7847 29.4197C31.6949 27.2797 29.8663 26.3601 26.871 25.9533L25.3385 25.7411L26.2963 25.2282C27.4457 24.5915 29.3265 22.8936 30.0579 21.8148C30.354 21.3726 30.8067 20.5591 31.1028 19.9755C32.078 17.9593 32.1303 17.4817 32.1303 8.42657V0.167252L21.2112 0.184937C15.1857 0.202621 9.85677 0.273365 9.33432 0.361797ZM30.65 1.6175C30.4236 2.71402 29.4658 4.81864 28.6125 6.10971C26.9058 8.70954 23.5796 11.3094 20.4101 12.5474C19.6613 12.848 18.1636 13.3256 17.1013 13.6085C16.0216 13.9092 14.0886 14.4221 12.7999 14.7581C8.7248 15.8546 6.51313 17.0042 4.45818 19.1089C3.01276 20.5768 2.29875 21.6733 1.39318 23.7956L0.783665 25.1928V17.9416C0.783665 9.78838 0.853324 9.16938 1.95046 6.90558C3.20432 4.30575 6.04293 1.9889 8.82929 1.29915C9.52588 1.13998 12.3645 1.06923 20.2534 1.06923L30.7719 1.05155L30.65 1.6175ZM31.3988 10.6904L31.3466 17.0573L30.859 18.4722C29.6225 22.027 26.8362 24.6445 23.3358 25.5465C21.9252 25.9179 1.48026 25.9533 1.48026 25.5819C1.48026 25.4581 1.89821 24.4854 2.42065 23.4242C4.24921 19.6748 6.65245 17.5879 10.7449 16.1553C11.4415 15.9077 13.5835 15.3241 15.4992 14.8289C21.3679 13.3432 24.0672 12.0168 26.9581 9.20475C28.8737 7.34773 30.354 5.08393 31.0331 2.96162L31.3466 1.95353L31.3988 3.13848C31.4337 3.79286 31.4337 7.18855 31.3988 10.6904ZM29.1698 27.2621C32.2522 28.4116 34.6206 30.8169 35.7525 33.965L36.2227 35.2738L36.275 45.9207C36.3098 54.8697 36.2924 56.5853 36.0834 56.5853C35.4913 56.5853 31.5208 54.3392 29.7793 53.0304C27.4457 51.2441 22.8134 46.5751 21.5769 44.7357C21.0893 44.0106 19.9225 42.0475 18.9821 40.4027C16.753 36.4764 15.7604 35.0262 14.2627 33.4875C11.6853 30.8877 8.91637 29.2429 4.0054 27.4743L1.91563 26.7138L14.8896 26.7492L27.8636 26.7845L29.1698 27.2621ZM4.30145 28.3939C9.49106 30.2333 13.3223 32.9392 15.6907 36.4233C16.1783 37.1485 17.3451 39.0939 18.2855 40.7564C20.6017 44.8418 21.5595 46.1683 24.015 48.7681C27.376 52.2876 30.2321 54.5691 33.3319 56.1962L34.7773 56.9567L22.0994 56.9036C9.50847 56.8506 9.38657 56.8506 8.27202 56.4615C4.96321 55.3119 2.38582 52.6944 1.25386 49.3341C0.888154 48.2022 0.870739 47.9899 0.818495 37.7144L0.76625 27.2444L1.67182 27.5097C2.15943 27.6511 3.34364 28.0579 4.30145 28.3939Z" fill="white"/>
<path d="M61.1957 0.609333C59.2974 1.22834 57.852 2.76701 57.2077 4.88932C56.8768 6.00353 56.8594 6.51643 56.8594 19.7101C56.8594 31.259 56.8942 33.399 57.1032 33.5759C57.2773 33.735 58.9666 33.7704 63.4247 33.735L69.4851 33.682L70.4777 33.1868C71.7142 32.5678 72.8984 31.259 73.4382 29.9149C73.8214 28.9421 73.8388 28.7122 73.8388 24.0432C73.8388 19.3387 73.8214 19.1442 73.4208 18.1361C73.1596 17.464 72.672 16.7389 72.0799 16.1199L71.1569 15.1471L71.9406 14.369C72.3934 13.9268 72.968 13.0779 73.2815 12.4058L73.8388 11.2209V8.21427C73.8388 5.22535 73.8388 5.20767 73.2989 4.05808C72.5675 2.46635 71.8361 1.68818 70.4777 1.01611L69.3284 0.432476L65.6538 0.397102C62.8501 0.361732 61.8052 0.414791 61.1957 0.609333ZM68.7014 2.30718C69.9205 2.57247 70.9305 3.40371 71.5574 4.64172C72.0102 5.5437 72.0799 5.89742 72.1496 7.55989C72.2889 11.0086 71.5923 12.7065 69.6592 13.6969L68.6144 14.2275L63.5989 14.2805L58.566 14.3513L58.6357 10.1067L58.6879 5.87973L59.2974 4.6594C59.7851 3.70437 60.0811 3.35065 60.7429 2.92619C61.1957 2.64321 61.8574 2.36024 62.2231 2.2895C63.2506 2.07726 67.7262 2.09495 68.7014 2.30718ZM69.2413 16.3498C70.2339 16.7035 71.1917 17.6762 71.6968 18.8081C72.0625 19.6394 72.0973 19.9931 72.1496 23.6364C72.2018 26.8906 72.167 27.7395 71.9232 28.5707C71.5226 29.9856 70.9131 30.8169 69.8682 31.4005L68.9626 31.9134L63.7905 31.9664L58.6009 32.0195V24.0608V16.0845H63.5467C67.5521 16.0845 68.6318 16.1376 69.2413 16.3498Z" fill="white"/>
<path d="M84.5488 0.626907C82.0063 1.31666 80.4215 3.36822 80.021 6.46325C79.8991 7.34755 79.8469 12.4941 79.8817 20.6473C79.9339 33.0805 79.9513 33.4519 80.2648 33.6995C80.5434 33.9118 81.954 33.9471 88.4672 33.9471C95.2938 33.9471 96.3561 33.9118 96.7044 33.6642C97.1746 33.3458 97.2094 32.6914 96.774 32.3024C96.478 32.0371 95.6943 32.0017 89.1115 32.0017H81.7625V24.043V16.0844H86.0813C90.6963 16.0844 90.8182 16.0667 90.8182 15.2001C90.8182 14.3335 90.6963 14.3158 86.0813 14.3158H81.7625V10.3718C81.7625 5.98574 81.8844 5.20756 82.8074 3.93417C83.1208 3.49203 83.6955 3.01451 84.2354 2.74922L85.1409 2.28938H90.4525C96.3038 2.28938 96.5999 2.23633 96.7044 1.31666C96.8263 0.361622 96.6695 0.343933 90.8356 0.361622C86.7257 0.361622 85.2803 0.432365 84.5488 0.626907Z" fill="white"/>
<path d="M107.484 0.53849C105.83 0.927578 104.315 2.14791 103.531 3.68658C102.66 5.43748 102.66 5.49054 102.66 19.9222V33.4166L103.096 33.6996C103.496 33.9648 103.566 33.9648 103.966 33.6996L104.402 33.4166V26.6959V19.9753H111.193H117.985V26.6075C117.985 33.0098 118.003 33.2574 118.333 33.5934C118.769 34.0356 119.117 34.0356 119.552 33.5934C119.918 33.222 119.918 33.1159 119.866 19.4801C119.814 5.75583 119.814 5.73814 119.413 4.67699C118.63 2.51931 117.184 1.15749 115.112 0.609234C113.962 0.308571 108.651 0.255512 107.484 0.53849ZM115.495 2.71385C116.087 2.99683 116.592 3.4036 116.94 3.89881C117.916 5.27831 117.985 5.82657 117.985 12.2289V18.0298H111.193H104.402V12.671C104.402 5.80889 104.576 4.7831 106.021 3.38592C106.996 2.43088 107.589 2.30708 111.28 2.30708C114.415 2.28939 114.642 2.30708 115.495 2.71385Z" fill="white"/>
<path d="M149.279 0.662266C148.914 1.06904 148.896 1.47581 149.262 1.82953C149.488 2.07714 150.15 2.11251 153.703 2.11251H157.865V17.6054C157.865 27.9339 157.917 33.2043 158.039 33.4342C158.248 33.8233 159.119 33.8941 159.415 33.5404C159.554 33.3635 159.624 28.8713 159.641 17.7468L159.693 2.20094L163.908 2.14788L168.139 2.11251L168.418 1.67036C168.679 1.26358 168.679 1.19284 168.418 0.786064L168.139 0.343918H158.84C150.063 0.343918 149.54 0.361603 149.279 0.662266Z" fill="white"/>
<path d="M171.379 0.732964C171.222 0.945194 171.101 1.19279 171.101 1.26354C171.101 1.3166 172.912 5.3313 175.106 10.1595L179.111 18.9318V26.1653V33.4165L179.547 33.6995C180.069 34.0532 180.557 33.894 180.818 33.3104C180.975 33.0097 181.027 30.7459 181.027 25.7762V18.6841L184.963 10.0004C189.229 0.573788 189.264 0.503044 188.063 0.379242C187.767 0.343872 187.436 0.432301 187.331 0.556103C187.227 0.69759 185.537 4.3232 183.57 8.65624L180 16.5088L179.582 15.5361C177.509 10.8316 172.912 0.892136 172.703 0.644531C172.337 0.22007 171.693 0.273129 171.379 0.732964Z" fill="white"/>
<path d="M197.275 0.662315C195.672 1.24595 194.68 2.23636 193.792 4.14643L193.304 5.20759L193.252 16.615C193.2 27.5626 193.217 28.0578 193.548 29.172C194.157 31.2059 195.202 32.4439 197.013 33.2928C197.78 33.6642 198.093 33.6819 201.837 33.6819C205.581 33.6819 205.895 33.6642 206.661 33.2928C208.438 32.4616 209.831 30.6222 210.266 28.4999C210.371 27.987 210.458 26.0593 210.458 24.2199C210.458 21.4256 210.405 20.8419 210.179 20.612C209.953 20.3644 209.343 20.329 206.208 20.329C202.743 20.329 202.482 20.3467 202.186 20.6827C201.785 21.1426 201.959 21.8854 202.551 22.0976C202.795 22.2037 204.293 22.2745 205.878 22.2745H208.751L208.681 25.2457C208.629 28.1993 208.612 28.2346 208.037 29.4196C206.992 31.5949 205.669 32.0902 201.141 31.9664C198.407 31.9133 198.32 31.8956 197.397 31.365C196.265 30.7283 195.429 29.4903 195.133 28.0224C195.011 27.4034 194.958 23.5832 194.993 16.4204L195.046 5.73817L195.533 4.73007C196.561 2.62545 197.71 2.11256 201.524 2.11256C204.763 2.11256 205.39 2.27173 206.557 3.42131C207.497 4.35867 208.02 5.56131 208.02 6.79932C208.02 7.41833 208.594 8.30262 208.995 8.30262C209.134 8.30262 209.413 8.12576 209.604 7.93122C209.935 7.59519 209.97 7.41833 209.866 6.55172C209.552 3.82809 208.333 1.88264 206.278 0.892231C205.355 0.450085 205.198 0.432396 201.75 0.379341C198.668 0.343967 198.058 0.379341 197.275 0.662315Z" fill="white"/>
<path d="M214.707 0.786152C214.48 1.13987 214.463 1.33442 214.585 1.63507C214.689 1.84731 216.5 5.82663 218.625 10.478L222.474 18.9142V26.1654V33.4166L222.909 33.6996C223.431 34.0533 224.006 33.8765 224.233 33.2928C224.32 33.0452 224.389 29.791 224.389 25.794V18.7197L228.308 10.0712C230.467 5.31374 232.226 1.28136 232.226 1.1045C232.226 0.909954 232.139 0.680035 232.017 0.556236C231.773 0.308632 230.972 0.273262 230.728 0.520863C230.641 0.609291 228.952 4.2349 227.001 8.55026C225.034 12.8833 223.379 16.3674 223.327 16.2967C223.275 16.2259 221.673 12.7418 219.774 8.56795C217.894 4.37639 216.222 0.821522 216.065 0.644665C215.682 0.202518 215.038 0.273262 214.707 0.786152Z" fill="white"/>
<path d="M237.033 0.626801C236.789 0.874405 236.754 2.60762 236.754 17.1454V33.4165L237.189 33.6994C237.59 33.9647 237.659 33.9647 238.06 33.6994L238.495 33.4165V20.4704C238.495 13.3607 238.53 7.57736 238.582 7.61273C238.617 7.66579 240.428 13.4668 242.588 20.5234C245.183 28.9596 246.646 33.4518 246.872 33.6817C247.185 34.0001 247.238 34.0178 247.69 33.7702C248.126 33.5226 248.422 32.6737 251.522 22.5396C253.385 16.5087 255.179 10.6547 255.527 9.54049L256.171 7.50662L256.224 20.4527L256.258 33.4165L256.694 33.6994C257.094 33.9647 257.164 33.9647 257.565 33.6994L258 33.4165V17.1454C258 2.60762 257.965 0.874405 257.721 0.626801C257.39 0.290771 256.955 0.273083 256.555 0.556057C256.38 0.697544 254.639 6.09175 251.87 15.1469C249.449 23.0525 247.429 29.5256 247.377 29.5256C247.307 29.5256 243.737 18.0297 238.966 2.50151C238.687 1.59953 238.356 0.750603 238.199 0.609116C237.868 0.273083 237.363 0.273083 237.033 0.626801Z" fill="white"/>
<path d="M69.5029 50.7504C68.2664 51.1394 67.8311 52.0589 67.8311 54.3223C67.8311 56.7979 68.4406 57.7174 70.1995 57.9296C71.5056 58.0888 72.6027 57.5583 73.0555 56.5504C73.5257 55.4894 73.5257 53.0845 73.0555 52.0235C72.533 50.8388 71.0005 50.2906 69.5029 50.7504ZM71.3837 51.6345C71.6275 51.7229 71.9409 52.0412 72.0977 52.3242C72.446 53.0315 72.4634 55.5248 72.0977 56.2144C71.5926 57.2223 69.9382 57.3815 69.2591 56.4973C68.8411 55.9668 68.6321 54.4284 68.8063 53.279C69.0153 51.8113 70.0776 51.1217 71.3837 51.6345Z" fill="white"/>
<path d="M96.5646 50.7679C94.9624 51.4222 94.736 53.3496 96.1989 54.0923C96.5472 54.2691 97.2612 54.552 97.7836 54.7289C98.9678 55.1179 99.3509 55.4362 99.3509 56.0551C99.3509 56.7093 98.9852 56.9746 97.9926 57.063C97.0522 57.1337 96.3904 56.8508 96.1292 56.2673C96.0073 56.002 95.8157 55.8783 95.4674 55.8783C94.9972 55.8783 94.9624 55.9136 95.0843 56.3557C95.241 57.0276 95.4849 57.2929 96.3033 57.6642C98.1841 58.5307 100.396 57.5758 100.396 55.8959C100.396 54.9411 99.8037 54.4106 98.219 53.9154C96.7561 53.4734 96.2163 53.0667 96.2163 52.4478C96.2163 51.8819 96.5994 51.599 97.5224 51.4929C98.2538 51.4222 98.3583 51.4575 98.9156 52.0587C99.856 53.0843 100.692 52.6246 99.856 51.5636C99.1768 50.6795 97.6791 50.3258 96.5646 50.7679Z" fill="white"/>
<path d="M123.645 50.9268C122.688 51.4043 122.339 52.0939 122.217 53.65C122.008 56.4793 123.018 58 125.091 58C126.432 57.9823 127.546 57.1689 127.825 56.0018C127.947 55.5598 127.912 55.5244 127.407 55.5244C126.989 55.5244 126.85 55.6128 126.763 55.9488C126.414 57.3811 124.011 57.5049 123.454 56.1256C123.315 55.7896 123.21 54.9762 123.21 54.2866C123.21 53.597 123.315 52.7835 123.454 52.4476C124.011 51.0683 126.414 51.1921 126.763 52.6244C126.85 52.9604 126.989 53.0488 127.407 53.0488C127.912 53.0488 127.947 53.0134 127.825 52.5537C127.633 51.7579 127.233 51.2628 126.467 50.9091C125.526 50.4848 124.516 50.4848 123.645 50.9268Z" fill="white"/>
<path d="M161.975 50.7503C161.331 50.9625 160.826 51.4223 160.547 52.1119C160.216 52.8723 160.234 55.7015 160.547 56.4796C161.035 57.6466 162.585 58.2479 164.083 57.8412C165.423 57.4698 166.555 55.5247 165.423 55.5247C165.093 55.5247 164.936 55.6485 164.797 56.0552C164.448 57.1162 162.811 57.4698 161.941 56.6918C161.54 56.3558 161.435 56.0906 161.348 55.2418C161.192 53.4558 161.383 52.3595 161.923 51.882C162.811 51.104 164.448 51.4576 164.797 52.5186C164.936 52.9253 165.093 53.0491 165.423 53.0491C166.068 53.0491 166.016 52.3418 165.336 51.5637C164.588 50.6796 163.264 50.3613 161.975 50.7503Z" fill="white"/>
<path d="M211.764 50.9095C211.015 51.2455 210.632 51.8467 210.632 52.6778C210.632 53.5266 211.207 54.0394 212.687 54.5345C214.342 55.1003 214.812 55.4186 214.812 55.9668C214.812 57.24 212.617 57.5583 211.66 56.4089C211.137 55.79 210.458 55.6839 210.458 56.2321C210.458 56.7979 211.346 57.6113 212.199 57.8412C214.011 58.3186 215.613 57.5406 215.804 56.1083C215.891 55.454 215.839 55.2949 215.404 54.8528C215.09 54.5522 214.411 54.1808 213.68 53.9333C212.008 53.3851 211.677 53.1552 211.677 52.5186C211.677 51.8644 212.234 51.4577 213.14 51.4577C213.68 51.4577 213.924 51.5814 214.394 52.0942C215.299 53.0668 215.978 52.7662 215.334 51.6699C214.69 50.6089 213.122 50.2729 211.764 50.9095Z" fill="white"/>
<path d="M222.213 50.8207C221.185 51.2805 220.767 52.147 221.081 53.1372C221.29 53.7915 221.882 54.1982 223.257 54.6402C224.773 55.1177 225.086 55.3476 225.086 55.9665C225.086 56.7091 224.755 56.9744 223.728 57.0628C222.787 57.1335 222.125 56.8506 221.864 56.2671C221.742 56.0018 221.551 55.878 221.22 55.878C220.663 55.878 220.628 56.0372 221.011 56.7799C221.324 57.4165 222.439 57.9823 223.345 58C224.999 58 226.131 57.1335 226.131 55.8604C226.131 54.9055 225.591 54.428 223.954 53.9152C223.223 53.703 222.491 53.3671 222.3 53.1902C221.62 52.536 222.004 51.6872 223.031 51.5104C223.85 51.3866 224.633 51.7049 224.877 52.2707C225.103 52.7482 225.73 52.8543 225.905 52.4122C225.957 52.2707 225.852 51.9171 225.661 51.6695C224.947 50.6793 223.379 50.2902 222.213 50.8207Z" fill="white"/>
<path d="M243.824 50.7503C242.57 51.1393 242.152 52.0058 242.152 54.2338C242.152 56.8155 242.744 57.7174 244.521 57.9295C245.2 58.018 245.583 57.9649 246.21 57.682C247.307 57.1869 247.725 56.4619 247.725 55.0295V53.9332H246.419C245.148 53.9332 245.113 53.9509 245.113 54.3753C245.113 54.782 245.165 54.8174 246.001 54.8174H246.889L246.767 55.4716C246.611 56.4088 246.018 56.957 245.095 57.0631C243.598 57.2399 242.884 56.0375 243.075 53.668C243.162 52.5716 243.249 52.3771 243.72 51.935C244.521 51.21 245.479 51.2631 246.28 52.0765C246.907 52.7131 247.725 52.9253 247.725 52.4302C247.725 52.2887 247.481 51.8997 247.185 51.5637C246.436 50.6796 245.113 50.3613 243.824 50.7503Z" fill="white"/>
<path d="M56.8594 54.2865V57.8231H57.2947C57.7127 57.8231 57.7127 57.7878 57.7649 56.267L57.8172 54.7286L59.5238 54.6756L61.2131 54.6225V56.2317V57.8231H61.7355H62.258V54.2865V50.7499H61.7355H61.2131V52.253V53.756H59.4716H57.7301V52.253C57.7301 50.7676 57.7301 50.7499 57.2947 50.7499H56.8594V54.2865Z" fill="white"/>
<path d="M78.9756 54.2865V57.8231H81.2569C83.5208 57.8231 83.5208 57.8231 83.4686 57.4164C83.4164 57.0451 83.3293 57.0274 81.64 56.9743L79.8463 56.9213V53.8445V50.7499H79.411H78.9756V54.2865Z" fill="white"/>
<path d="M88.7285 54.2865V57.8231H89.1634H89.5984V54.2865V50.7499H89.1634H88.7285V54.2865Z" fill="white"/>
<path d="M105.168 51.0152C104.994 51.475 105.29 51.6341 106.335 51.6341H107.362V54.7463V57.8408L107.85 57.7878L108.32 57.7347L108.372 54.6756L108.407 51.6341H109.452C110.445 51.6341 110.497 51.6164 110.497 51.192V50.75H107.885C105.76 50.75 105.237 50.803 105.168 51.0152Z" fill="white"/>
<path d="M115.721 54.2866V57.8408L116.208 57.7878L116.678 57.7347V54.2866V50.8384L116.208 50.7853L115.721 50.7323V54.2866Z" fill="white"/>
<path d="M139.754 54.2865V57.8231H140.276H140.799V56.3201V54.817H142.453C144.108 54.817 144.108 54.817 144.108 54.3749C144.108 53.9329 144.108 53.9329 142.453 53.9329H140.799V52.7835V51.6341H142.54H144.282V51.192V50.7499H142.018H139.754V54.2865Z" fill="white"/>
<path d="M151.508 51.0506C151.456 51.2274 150.899 52.6774 150.289 54.2865C149.68 55.8957 149.122 57.3457 149.07 57.5225C148.966 57.7701 149.035 57.8231 149.471 57.8231C149.923 57.8231 150.011 57.717 150.289 57.0274L150.585 56.214L152.257 56.267L153.911 56.3201L154.19 57.0628C154.417 57.717 154.521 57.8231 154.939 57.8231C155.2 57.8231 155.427 57.7701 155.427 57.6817C155.409 57.6109 154.834 56.0371 154.138 54.1981L152.867 50.8384L152.257 50.7853C151.787 50.7499 151.613 50.803 151.508 51.0506ZM152.988 53.7384C153.267 54.5341 153.511 55.2237 153.511 55.2768C153.511 55.3121 152.919 55.3475 152.187 55.3475C150.986 55.3475 150.881 55.3121 150.986 55.0292C151.055 54.8701 151.352 54.0743 151.648 53.2609C152.24 51.5987 152.205 51.581 152.988 53.7384Z" fill="white"/>
<path d="M171.274 54.2865V57.8231H173.625H175.976V57.381V56.939H174.148H172.319V55.7896V54.6579L174.026 54.6048C175.576 54.5518 175.715 54.5164 175.715 54.1981C175.715 53.8798 175.576 53.8445 174.026 53.7914L172.319 53.7384V52.6951V51.6518L174.113 51.5987C175.802 51.5457 175.889 51.528 175.942 51.139C175.994 50.7499 175.994 50.7499 173.643 50.7499H171.274V54.2865Z" fill="white"/>
<path d="M187.992 54.3042V57.8408L188.48 57.7878L188.95 57.7347L189.037 55.2768L189.124 52.8366L189.89 54.4457C191.022 56.7622 191.231 56.7622 192.346 54.4634C192.764 53.5792 193.182 52.8719 193.251 52.8719C193.321 52.8719 193.391 53.9859 193.391 55.3475V57.8231H193.826H194.262V54.2866V50.75H193.791C193.356 50.75 193.199 50.9445 192.276 52.7835C191.702 53.8975 191.197 54.817 191.127 54.817C191.075 54.817 190.57 53.8975 189.995 52.7835C189.054 50.9445 188.898 50.75 188.48 50.75H187.992V54.3042Z" fill="white"/>
<path d="M200.74 54.0213C200.044 55.8249 199.486 57.4341 199.486 57.5756C199.486 57.717 199.66 57.8231 199.904 57.8231C200.218 57.8231 200.374 57.664 200.601 57.0274L200.914 56.2317H202.551H204.206L204.537 57.0274C204.815 57.664 204.955 57.8231 205.32 57.8231C205.564 57.8231 205.756 57.7701 205.756 57.6817C205.756 57.6109 205.181 56.0371 204.484 54.1981L203.213 50.8384L202.586 50.7853L201.977 50.7323L200.74 54.0213ZM203.213 53.4378C203.561 54.3396 203.84 55.1353 203.84 55.206C203.84 55.2945 203.248 55.3475 202.516 55.3475C201.785 55.3475 201.228 55.2768 201.263 55.206C201.297 55.1353 201.594 54.3396 201.924 53.4378C202.255 52.5359 202.534 51.8109 202.551 51.8109C202.586 51.8109 202.882 52.5536 203.213 53.4378Z" fill="white"/>
<path d="M233.254 51.2274C232.296 53.7384 230.833 57.6993 230.833 57.7524C230.833 57.7878 231.059 57.8231 231.321 57.8231C231.739 57.8231 231.843 57.717 232.069 57.0628L232.348 56.3201H234.055H235.761L236.023 57.0628C236.232 57.7347 236.319 57.8231 236.789 57.8231C237.224 57.8231 237.294 57.7701 237.189 57.5048C237.137 57.3457 236.667 56.0902 236.145 54.7286C234.542 50.4317 234.699 50.7499 234.037 50.7499C233.55 50.7499 233.41 50.8384 233.254 51.2274ZM234.734 53.5615C235.082 54.4634 235.361 55.2414 235.361 55.2768C235.361 55.3121 234.769 55.3475 234.055 55.3475C233.341 55.3475 232.749 55.3121 232.749 55.2591C232.749 55.0823 234.02 51.7932 234.055 51.8463C234.09 51.8817 234.386 52.642 234.734 53.5615Z" fill="white"/>
<path d="M253.298 54.2865V57.8231H255.666C258.017 57.8231 258.017 57.8231 257.965 57.4164C257.913 57.0451 257.826 57.0274 256.032 56.9743L254.151 56.9213L254.203 55.8249L254.256 54.7286L255.962 54.6756C257.634 54.6225 257.652 54.6225 257.652 54.1981C257.652 53.756 257.652 53.756 255.91 53.756H254.169V52.6951V51.6341H255.98C257.477 51.6341 257.808 51.581 257.895 51.3512C257.948 51.192 257.965 50.9975 257.895 50.9091C257.843 50.8207 256.798 50.7499 255.544 50.7499H253.298V54.2865Z" fill="white"/>
</svg>
