<svg width="134" height="154" viewBox="0 0 134 154" fill="none" xmlns="http://www.w3.org/2000/svg">
<rect width="134" height="154" fill="#1F2C4A"/>
<path d="M83.8651 69.8084H82.2563C92.2645 65.8191 99.3557 56.0523 99.3557 44.6609V10H50.1349C35.1715 10 23 22.1432 23 37.0719V116.928C23 131.857 35.1715 144 50.1349 144H111V96.8803C111 81.9516 98.8285 69.8084 83.8651 69.8084ZM83.8651 71.6589C97.8055 71.6589 109.149 82.9723 109.149 96.8842V141.53L109.098 141.514C96.3841 137.412 85.5364 126.784 77.508 117.984C73.6695 113.776 70.7331 108.56 67.8942 103.511C64.4697 97.4257 60.9318 91.1379 55.7423 86.4201C47.6944 79.1076 38.9318 75.3677 26.8424 71.7368H72.2208C72.8807 71.7368 73.5289 71.7056 74.1771 71.6589H83.8651ZM74.1147 69.8084H26.2801C28.623 63.5556 30.5051 59.3247 35.6908 54.3732C39.4473 50.7852 44.6642 48.1438 52.1029 46.0673C54.3248 45.4479 56.6131 44.8986 58.8427 44.3688C62.7164 43.4416 66.7267 42.4832 70.5573 41.0963C77.5158 38.5757 83.6542 34.676 88.3127 29.8257C92.8268 25.1274 96.0327 19.385 97.5009 13.4595V44.6648C97.5009 57.9378 87.1686 68.8422 74.1108 69.8122L74.1147 69.8084ZM50.1349 11.8505H96.021C94.7831 17.889 91.6085 23.8067 87.0085 28.5947C82.5414 33.2463 76.6372 36.9901 69.9365 39.4172C66.2034 40.7729 62.2439 41.7157 58.4054 42.6351C56.1718 43.1689 53.864 43.7221 51.6109 44.3493C46.7416 45.7089 39.666 48.0931 34.4373 53.0876C29.1736 58.117 27.1665 62.3791 24.847 68.4955V37.0719C24.8548 23.1639 36.1945 11.8505 50.1349 11.8505ZM24.8548 116.928V73.0068C37.4597 76.7078 46.4097 80.3582 54.524 87.729C59.4988 92.2521 62.9663 98.4152 66.3245 104.376C69.2141 109.51 72.2052 114.82 76.1764 119.176C83.7519 127.478 93.8069 137.373 105.678 142.153H50.1349C36.1945 142.153 24.8509 130.84 24.8509 116.928H24.8548Z" fill="white"/>
</svg>
